<?xml version="1.0" encoding="utf-8"?>
<!-- Generator: Adobe Illustrator 16.0.0, SVG Export Plug-In . SVG Version: 6.00 Build 0)  -->
<!DOCTYPE svg PUBLIC "-//W3C//DTD SVG 1.1//EN" "http://www.w3.org/Graphics/SVG/1.1/DTD/svg11.dtd">
<svg version="1.1" xmlns="http://www.w3.org/2000/svg" xmlns:xlink="http://www.w3.org/1999/xlink" x="0px" y="0px" width="310px"
	 height="310px" viewBox="0 0 310 310" enable-background="new 0 0 310 310" xml:space="preserve">
<g id="Layer_1">
	<ellipse fill="#2BA7AA" cx="155.085" cy="155.25" rx="153" ry="150.25"/>
	<ellipse fill="#2BA7AA" cx="155.085" cy="155.25" rx="153" ry="150.25"/>
	<line fill="#2BA7AA" stroke="#FDFDFE" stroke-miterlimit="10" x1="242.125" y1="254.625" x2="273.5" y2="257.521"/>
</g>
<g id="Layer_2">
	
		<rect x="93.082" y="58.187" fill="#FFFFFF" stroke="#FFFFFF" stroke-linecap="round" stroke-miterlimit="10" width="123.98" height="194.667"/>
	<path fill="#FFFFFF" stroke="#FFFFFF" stroke-linecap="round" stroke-miterlimit="10" d="M87.773,53.187v204.334h134.333V53.187
		H87.773 M84.518,254.605l-58.865,2.916V37.584l58.865,15.603V254.605z M81,56.226l-51.5-13.75v213.25l51.5-5.25V56.226z
		 M225.652,53.187l58.865-15.603v219.937l-58.865-2.916V53.187z M229.17,250.477l51.5,5.25V42.476l-51.5,13.75V250.477z
		 M229.17,116.976l51.5-2.75v-3.25l-51.5,3.25V116.976z M229.17,158.354l51.5-2.75v-3.25l-51.5,3.25V158.354z M229.17,199.477
		l51.5-2.75v-3.25l-51.5,3.25V199.477z M80.835,115.979l-51.5-3.25v3.25l51.5,2.75V115.979z M80.835,161.604l-51.5-3.25v3.25
		l51.5,2.75V161.604z M80.835,208.48l-51.5-3.25v3.25l51.5,2.75V208.48z"/>
	<line fill="none" stroke="#FFFFFF" stroke-miterlimit="10" x1="66.667" y1="254.5" x2="38.993" y2="256.86"/>
	<line fill="none" stroke="#FFFFFF" stroke-miterlimit="10" x1="76.5" y1="254.5" x2="39.667" y2="258.333"/>
	<line fill="none" stroke="#FFFFFF" stroke-miterlimit="10" x1="62.833" y1="254.827" x2="40.833" y2="257.521"/>
	<polyline fill="none" stroke="#FFFFFF" stroke-width="3" stroke-miterlimit="10" points="284.518,131.776 292.5,131.776 
		292.5,162.342 284.518,162.342 	"/>
	<path fill="none" stroke="#FFFFFF" stroke-width="3" stroke-miterlimit="10" d="M25.652,131.776"/>
	<polyline fill="none" stroke="#F9F9FA" stroke-width="3" stroke-miterlimit="10" points="25.652,131.5 16,131.776 16,162.342 
		25.652,162.342 	"/>
</g>
<g id="Layer_8">
	<rect x="93.01" y="58.187" fill="#2BA7AA" width="123.98" height="194.667"/>
</g>
<g id="Layer_6">
	<path fill="#2BA7AA" d="M177.881,159.921v-15.815h12.17v-17.22h-50.57c-0.765,1.3-2.132,2.239-4.106,2.239
		c-0.921,0-1.706-0.209-2.363-0.559c-0.798,0.794-1.926,1.309-3.387,1.309c-2.336,0-3.822-1.315-4.465-2.989h-3.098v17.22h12.929
		v15.815h-0.792c0.148,2.604-1.457,5.329-4.823,5.329c-1.814,0-3.118-0.792-3.912-1.93v4.357c0.528-0.191,1.121-0.303,1.787-0.303
		c5.659,0,6.351,7.698,2.078,9.585h2.758c0.753-1.351,2.141-2.335,4.164-2.335s3.411,0.984,4.164,2.335h53.189v-17.039H177.881z"/>
</g>
<g id="Layer_7">
	
		<line opacity="0.8" fill="none" stroke="#F9F9FA" stroke-width="4" stroke-miterlimit="10" x1="91.317" y1="199.825" x2="218.854" y2="199.825"/>
	
		<line opacity="0.8" fill="none" stroke="#F9F9FA" stroke-width="4" stroke-miterlimit="10" x1="156.168" y1="201.52" x2="156.168" y2="254.5"/>
	
		<line opacity="0.8" fill="none" stroke="#F9F9FA" stroke-width="4" stroke-miterlimit="10" x1="91.062" y1="122.5" x2="217.318" y2="122.5"/>
	
		<line opacity="0.9" fill="none" stroke="#F9F9FA" stroke-width="4" stroke-miterlimit="10" x1="93.01" y1="90.588" x2="219.93" y2="90.588"/>
	<path opacity="0.8" fill="#FFFFFF" d="M137.554,208.486c0,1.095-0.887,1.981-1.981,1.981h-21.691c-1.094,0-1.981-0.887-1.981-1.981
		l0,0c0-1.095,0.887-1.981,1.981-1.981h21.691C136.667,206.505,137.554,207.392,137.554,208.486L137.554,208.486z"/>
	<path opacity="0.8" fill="#FFFFFF" d="M199.241,208.486c0,1.095-0.888,1.981-1.981,1.981h-21.691c-1.094,0-1.98-0.887-1.98-1.981
		l0,0c0-1.095,0.887-1.981,1.98-1.981h21.691C198.354,206.505,199.241,207.392,199.241,208.486L199.241,208.486z"/>
</g>
<g id="Layer_4">
	<g>
		<path fill="none" stroke="#EFDD10" stroke-width="2" stroke-linecap="round" stroke-miterlimit="10" d="M159.246,111.267
			c-0.137,1.946-0.29,3.89-0.461,5.833"/>
		<path fill="none" stroke="#EFDD10" stroke-width="2" stroke-linecap="round" stroke-miterlimit="10" d="M159.886,104.833
			c0.688-6.165,1.343-12.333,1.972-18.504"/>
		<path fill="none" stroke="#EFDD10" stroke-width="2" stroke-linecap="round" stroke-miterlimit="10" d="M162.401,80.929
			c0.308-3.086,0.608-6.173,0.903-9.261"/>
		<path fill="none" stroke="#EFDD10" stroke-width="2" stroke-linecap="round" stroke-miterlimit="10" d="M128.222,113.416
			c-3.438-5.162-6.9-10.311-10.383-15.44"/>
		<path fill="none" stroke="#EFDD10" stroke-width="2" stroke-linecap="round" stroke-miterlimit="10" d="M114.783,93.488
			c-1.748-2.562-3.502-5.12-5.263-7.673"/>
		<path fill="none" stroke="#EFDD10" stroke-width="2" stroke-linecap="round" stroke-miterlimit="10" d="M109.482,140.346
			c-5.953-1.746-11.913-3.463-17.879-5.155"/>
		<path fill="none" stroke="#EFDD10" stroke-width="2" stroke-linecap="round" stroke-miterlimit="10" d="M86.377,133.716
			c-2.986-0.836-5.974-1.667-8.963-2.494"/>
		<path fill="none" stroke="#EFDD10" stroke-width="2" stroke-linecap="round" stroke-miterlimit="10" d="M112.436,173.021
			c-5.681,2.488-11.351,5.002-17.01,7.543"/>
		<path fill="none" stroke="#EFDD10" stroke-width="2" stroke-linecap="round" stroke-miterlimit="10" d="M90.478,182.793
			c-2.827,1.279-5.649,2.563-8.47,3.852"/>
		<path fill="none" stroke="#EFDD10" stroke-width="2" stroke-linecap="round" stroke-miterlimit="10" d="M135.702,196.152
			c-2.751,5.559-5.479,11.129-8.181,16.713"/>
		<path fill="none" stroke="#EFDD10" stroke-width="2" stroke-linecap="round" stroke-miterlimit="10" d="M125.164,217.754
			c-1.344,2.795-2.682,5.592-4.013,8.393"/>
		<path fill="none" stroke="#EFDD10" stroke-width="2" stroke-linecap="round" stroke-miterlimit="10" d="M166.794,192.65
			c-0.523-1.828-1.03-3.66-1.521-5.498"/>
		<path fill="none" stroke="#EFDD10" stroke-width="2" stroke-linecap="round" stroke-miterlimit="10" d="M168.394,198.918
			c1.466,6.025,2.958,12.047,4.476,18.061"/>
		<path fill="none" stroke="#EFDD10" stroke-width="2" stroke-linecap="round" stroke-miterlimit="10" d="M174.205,222.238
			c0.769,3.006,1.543,6.008,2.323,9.012"/>
		<path fill="none" stroke="#EFDD10" stroke-width="2" stroke-linecap="round" stroke-miterlimit="10" d="M200.971,184.24
			c3.089,2.254,6.184,4.5,9.282,6.738"/>
		<path fill="none" stroke="#EFDD10" stroke-width="2" stroke-linecap="round" stroke-miterlimit="10" d="M195.215,180.02
			c0.614,0.453,1.23,0.906,1.848,1.359"/>
		<path fill="none" stroke="#EFDD10" stroke-width="2" stroke-linecap="round" stroke-miterlimit="10" d="M214.657,194.15
			c2.52,1.811,5.044,3.611,7.572,5.41"/>
		<path fill="none" stroke="#EFDD10" stroke-width="2" stroke-linecap="round" stroke-miterlimit="10" d="M197.166,148.792
			c-1.9,0.199-3.803,0.381-5.706,0.547"/>
		<path fill="none" stroke="#EFDD10" stroke-width="2" stroke-linecap="round" stroke-miterlimit="10" d="M206.45,148.122
			c5.243-0.344,10.486-0.706,15.727-1.088"/>
		<path fill="none" stroke="#EFDD10" stroke-width="2" stroke-linecap="round" stroke-miterlimit="10" d="M227.591,146.63
			c3.092-0.232,6.185-0.473,9.277-0.72"/>
		<path fill="none" stroke="#EFDD10" stroke-width="2" stroke-linecap="round" stroke-miterlimit="10" d="M189.663,118.612
			c4.487-4.284,8.954-8.586,13.401-12.907"/>
		<path fill="none" stroke="#EFDD10" stroke-width="2" stroke-linecap="round" stroke-miterlimit="10" d="M206.952,101.917
			c2.222-2.168,4.436-4.339,6.645-6.515"/>
		<path fill="none" stroke="#EFDD10" stroke-width="2" stroke-linecap="round" stroke-miterlimit="10" d="M150.941,96.985
			c0.411,4.658,0.821,9.316,1.231,13.974"/>
		<path fill="none" stroke="#EFDD10" stroke-width="2" stroke-linecap="round" stroke-miterlimit="10" d="M149.722,83.158
			c0.277,3.137,0.553,6.273,0.831,9.411"/>
		<path fill="none" stroke="#EFDD10" stroke-width="2" stroke-linecap="round" stroke-miterlimit="10" d="M116.324,113.155
			c1.712,1.709,3.424,3.419,5.136,5.128"/>
		<path fill="none" stroke="#EFDD10" stroke-width="2" stroke-linecap="round" stroke-miterlimit="10" d="M106.503,103.347
			c2.226,2.225,4.457,4.449,6.684,6.675"/>
		<path fill="none" stroke="#EFDD10" stroke-width="2" stroke-linecap="round" stroke-miterlimit="10" d="M100.201,147.793
			c4.789,0.416,9.579,0.832,14.367,1.248"/>
		<path fill="none" stroke="#EFDD10" stroke-width="2" stroke-linecap="round" stroke-miterlimit="10" d="M86.371,146.592
			c3.137,0.273,6.274,0.545,9.412,0.817"/>
		<path fill="none" stroke="#EFDD10" stroke-width="2" stroke-linecap="round" stroke-miterlimit="10" d="M110.113,184.691
			c1.969-1.379,3.937-2.76,5.904-4.141"/>
		<path fill="none" stroke="#EFDD10" stroke-width="2" stroke-linecap="round" stroke-miterlimit="10" d="M98.748,192.66
			c2.579-1.807,5.156-3.615,7.736-5.422"/>
		<path fill="none" stroke="#EFDD10" stroke-width="2" stroke-linecap="round" stroke-miterlimit="10" d="M144.551,194.891
			c0.309-1.162,0.62-2.322,0.93-3.482"/>
		<path fill="none" stroke="#EFDD10" stroke-width="2" stroke-linecap="round" stroke-miterlimit="10" d="M141.425,206.584
			c0.465-1.74,0.932-3.48,1.397-5.223"/>
		<path fill="none" stroke="#EFDD10" stroke-width="2" stroke-linecap="round" stroke-miterlimit="10" d="M137.842,219.996
			c0.813-3.043,1.625-6.086,2.438-9.127"/>
		<path fill="none" stroke="#EFDD10" stroke-width="2" stroke-linecap="round" stroke-miterlimit="10" d="M179.486,203.23
			c-2.29-4.9-4.579-9.801-6.868-14.701"/>
		<path fill="none" stroke="#EFDD10" stroke-width="2" stroke-linecap="round" stroke-miterlimit="10" d="M185.36,215.807
			c-1.333-2.854-2.668-5.705-4-8.559"/>
		<path fill="none" stroke="#EFDD10" stroke-width="2" stroke-linecap="round" stroke-miterlimit="10" d="M206.483,176.195
			c-1.868-0.869-3.736-1.738-5.604-2.607"/>
		<path fill="none" stroke="#EFDD10" stroke-width="2" stroke-linecap="round" stroke-miterlimit="10" d="M219.068,182.055
			c-2.854-1.33-5.711-2.656-8.566-3.986"/>
		<path fill="none" stroke="#EFDD10" stroke-width="2" stroke-linecap="round" stroke-miterlimit="10" d="M201.579,140.338
			c-3.258,0.874-6.515,1.75-9.772,2.625"/>
		<path fill="none" stroke="#EFDD10" stroke-width="2" stroke-linecap="round" stroke-miterlimit="10" d="M209.788,138.133
			c-1.243,0.333-2.487,0.668-3.73,1.001"/>
		<path fill="none" stroke="#EFDD10" stroke-width="2" stroke-linecap="round" stroke-miterlimit="10" d="M223.192,134.531
			c-3.041,0.817-6.08,1.634-9.122,2.45"/>
		<path fill="none" stroke="#EFDD10" stroke-width="2" stroke-linecap="round" stroke-miterlimit="10" d="M187.853,106.849
			c-1.918,2.744-3.836,5.489-5.756,8.233"/>
		<path fill="none" stroke="#EFDD10" stroke-width="2" stroke-linecap="round" stroke-miterlimit="10" d="M195.807,95.475
			c-1.804,2.579-3.607,5.16-5.413,7.741"/>
		<path fill="none" stroke="#EFDD10" stroke-width="2" stroke-linecap="round" stroke-miterlimit="10" d="M144.294,109.628
			c0.492,1.831,0.984,3.662,1.476,5.493"/>
		<path fill="none" stroke="#EFDD10" stroke-width="2" stroke-linecap="round" stroke-miterlimit="10" d="M137.355,83.796
			c1.802,6.703,3.601,13.404,5.402,20.107"/>
		<path fill="none" stroke="#EFDD10" stroke-width="2" stroke-linecap="round" stroke-miterlimit="10" d="M132.896,67.199
			c1.045,3.892,2.091,7.784,3.136,11.675"/>
		<path fill="none" stroke="#EFDD10" stroke-width="2" stroke-linecap="round" stroke-miterlimit="10" d="M97.439,111.785
			c5.688,3.977,11.375,7.954,17.063,11.931"/>
		<path fill="none" stroke="#EFDD10" stroke-width="2" stroke-linecap="round" stroke-miterlimit="10" d="M84.831,102.969
			c2.811,1.965,5.621,3.929,8.43,5.895"/>
		<path fill="none" stroke="#EFDD10" stroke-width="2" stroke-linecap="round" stroke-miterlimit="10" d="M111.499,156.534
			c1.963-0.175,3.927-0.345,5.891-0.521"/>
		<path fill="none" stroke="#EFDD10" stroke-width="2" stroke-linecap="round" stroke-miterlimit="10" d="M84.854,158.883
			c6.913-0.609,13.826-1.219,20.738-1.828"/>
		<path fill="none" stroke="#EFDD10" stroke-width="2" stroke-linecap="round" stroke-miterlimit="10" d="M70.807,160.121
			c2.989-0.264,5.979-0.527,8.968-0.791"/>
		<path fill="none" stroke="#EFDD10" stroke-width="2" stroke-linecap="round" stroke-miterlimit="10" d="M124.386,184.127
			c1.507-1.51,3.014-3.02,4.521-4.529"/>
		<path fill="none" stroke="#EFDD10" stroke-width="2" stroke-linecap="round" stroke-miterlimit="10" d="M105.485,203.053
			c4.904-4.912,9.809-9.822,14.712-14.732"/>
		<path fill="none" stroke="#EFDD10" stroke-width="2" stroke-linecap="round" stroke-miterlimit="10" d="M95.885,212.664
			c1.999-2.002,3.998-4.002,5.998-6.006"/>
		<path fill="none" stroke="#EFDD10" stroke-width="2" stroke-linecap="round" stroke-miterlimit="10" d="M151.996,196.977
			c0.287-3.33,0.578-6.66,0.865-9.99"/>
		<path fill="none" stroke="#EFDD10" stroke-width="2" stroke-linecap="round" stroke-miterlimit="10" d="M149.681,223.625
			c0.497-5.719,0.994-11.438,1.49-17.156"/>
		<path fill="none" stroke="#EFDD10" stroke-width="2" stroke-linecap="round" stroke-miterlimit="10" d="M148.55,236.648
			c0.229-2.648,0.46-5.297,0.691-7.943"/>
		<path fill="none" stroke="#EFDD10" stroke-width="2" stroke-linecap="round" stroke-miterlimit="10" d="M196.762,210.977
			c-3.985-5.682-7.969-11.365-11.952-17.047"/>
		<path fill="none" stroke="#EFDD10" stroke-width="2" stroke-linecap="round" stroke-miterlimit="10" d="M205.153,222.943
			c-1.822-2.598-3.643-5.195-5.463-7.793"/>
		<path fill="none" stroke="#EFDD10" stroke-width="2" stroke-linecap="round" stroke-miterlimit="10" d="M198.857,164.119
			c-1.831-0.49-3.663-0.979-5.495-1.469"/>
		<path fill="none" stroke="#EFDD10" stroke-width="2" stroke-linecap="round" stroke-miterlimit="10" d="M224.697,171.023
			c-6.704-1.789-13.409-3.582-20.113-5.375"/>
		<path fill="none" stroke="#EFDD10" stroke-width="2" stroke-linecap="round" stroke-miterlimit="10" d="M237.574,174.465
			c-2.65-0.707-5.301-1.414-7.952-2.125"/>
		<path fill="none" stroke="#EFDD10" stroke-width="2" stroke-linecap="round" stroke-miterlimit="10" d="M220.417,122.462
			c-4.969,2.322-9.938,4.642-14.905,6.963"/>
		<path fill="none" stroke="#EFDD10" stroke-width="2" stroke-linecap="round" stroke-miterlimit="10" d="M232.026,117.041
			c-2.329,1.089-4.66,2.176-6.991,3.264"/>
		<path fill="none" stroke="#EFDD10" stroke-width="2" stroke-linecap="round" stroke-miterlimit="10" d="M174.633,112.262
			c-0.8,1.719-1.6,3.438-2.4,5.157"/>
		<path fill="none" stroke="#EFDD10" stroke-width="2" stroke-linecap="round" stroke-miterlimit="10" d="M185.923,88.013
			c-2.929,6.293-5.857,12.584-8.786,18.876"/>
		<path fill="none" stroke="#EFDD10" stroke-width="2" stroke-linecap="round" stroke-miterlimit="10" d="M191.439,76.165
			c-1.121,2.409-2.244,4.818-3.364,7.228"/>
		<path fill="none" stroke="#EFDD10" stroke-width="2" stroke-linecap="round" stroke-miterlimit="10" d="M137.609,113.583
			c-1.307-2.796-2.612-5.594-3.918-8.391"/>
		<path fill="none" stroke="#EFDD10" stroke-width="2" stroke-linecap="round" stroke-miterlimit="10" d="M130.439,98.174
			c-1.619-3.477-3.238-6.955-4.854-10.432"/>
		<path fill="none" stroke="#EFDD10" stroke-width="2" stroke-linecap="round" stroke-miterlimit="10" d="M114.449,133.355
			c-2.022-0.941-4.042-1.883-6.062-2.824"/>
		<path fill="none" stroke="#EFDD10" stroke-width="2" stroke-linecap="round" stroke-miterlimit="10" d="M101.385,127.243
			c-3.478-1.621-6.953-3.244-10.426-4.871"/>
		<path fill="none" stroke="#EFDD10" stroke-width="2" stroke-linecap="round" stroke-miterlimit="10" d="M116.22,163.271
			c-3.644,0.979-7.287,1.957-10.932,2.934"/>
		<path fill="none" stroke="#EFDD10" stroke-width="2" stroke-linecap="round" stroke-miterlimit="10" d="M97.811,168.189
			c-3.705,0.99-7.41,1.982-11.117,2.969"/>
		<path fill="none" stroke="#EFDD10" stroke-width="2" stroke-linecap="round" stroke-miterlimit="10" d="M131.45,187.518
			c-1.867,2.67-3.734,5.34-5.603,8.01"/>
		<path fill="none" stroke="#EFDD10" stroke-width="2" stroke-linecap="round" stroke-miterlimit="10" d="M121.393,201.852
			c-2.2,3.141-4.403,6.281-6.605,9.422"/>
		<path fill="none" stroke="#EFDD10" stroke-width="2" stroke-linecap="round" stroke-miterlimit="10" d="M159.268,191.449
			c0.395,4.439,0.786,8.881,1.175,13.324"/>
		<path fill="none" stroke="#EFDD10" stroke-width="2" stroke-linecap="round" stroke-miterlimit="10" d="M161.098,212.482
			c0.332,3.818,0.665,7.641,0.992,11.461"/>
		<path fill="none" stroke="#EFDD10" stroke-width="2" stroke-linecap="round" stroke-miterlimit="10" d="M189.793,186.527
			c1.032,1.029,2.063,2.061,3.093,3.09"/>
		<path fill="none" stroke="#EFDD10" stroke-width="2" stroke-linecap="round" stroke-miterlimit="10" d="M198.343,195.102
			c2.711,2.713,5.422,5.428,8.128,8.141"/>
		<path fill="none" stroke="#EFDD10" stroke-width="2" stroke-linecap="round" stroke-miterlimit="10" d="M199.543,156.417
			c2.82,0.245,5.639,0.489,8.456,0.735"/>
		<path fill="none" stroke="#EFDD10" stroke-width="2" stroke-linecap="round" stroke-miterlimit="10" d="M215.705,157.848
			c3.819,0.334,7.641,0.674,11.46,1.012"/>
		<path fill="none" stroke="#EFDD10" stroke-width="2" stroke-linecap="round" stroke-miterlimit="10" d="M198.71,122.571
			c-0.564,0.393-1.125,0.787-1.688,1.179"/>
		<path fill="none" stroke="#EFDD10" stroke-width="2" stroke-linecap="round" stroke-miterlimit="10" d="M205.058,118.15
			c3.143-2.2,6.287-4.397,9.43-6.593"/>
		<path fill="none" stroke="#EFDD10" stroke-width="2" stroke-linecap="round" stroke-miterlimit="10" d="M166.364,113.267
			c0.998-3.739,1.997-7.479,2.999-11.217"/>
		<path fill="none" stroke="#EFDD10" stroke-width="2" stroke-linecap="round" stroke-miterlimit="10" d="M171.383,94.583
			c0.994-3.705,1.99-7.408,2.986-11.111"/>
		
			<line fill="none" stroke="#EFDD10" stroke-width="2" stroke-linecap="round" stroke-miterlimit="10" x1="197.022" y1="123.75" x2="193.488" y2="126.363"/>
	</g>
	
		<line fill="none" stroke="#F5EB23" stroke-width="2" stroke-linecap="round" stroke-miterlimit="10" x1="203.293" y1="133.829" x2="196.098" y2="136.99"/>
	
		<line fill="none" stroke="#F5EB23" stroke-width="2" stroke-linecap="round" stroke-miterlimit="10" x1="203.807" y1="142.966" x2="199.592" y2="144.099"/>
</g>
<g id="Layer_5">
	<g>
		<g>
			<rect x="100.951" y="126.562" fill="none" width="111.038" height="99.267"/>
			<path fill="#FFFFFF" d="M137.296,137.807h-2.543l-1.3-5.209c-0.02-0.072-0.042-0.173-0.069-0.304
				c-0.026-0.13-0.057-0.277-0.09-0.44s-0.067-0.335-0.101-0.513s-0.065-0.352-0.094-0.52c-0.029-0.168-0.054-0.324-0.076-0.466
				c-0.021-0.142-0.037-0.257-0.047-0.343c-0.01,0.086-0.025,0.201-0.047,0.343c-0.022,0.142-0.047,0.296-0.076,0.462
				c-0.029,0.166-0.059,0.338-0.09,0.516c-0.031,0.178-0.063,0.35-0.094,0.513s-0.062,0.313-0.09,0.448
				c-0.029,0.135-0.053,0.241-0.072,0.318l-1.286,5.195h-2.55l-2.543-10.563h2.204l1.199,5.765c0.015,0.077,0.035,0.189,0.062,0.336
				s0.057,0.312,0.09,0.495s0.068,0.375,0.104,0.578c0.036,0.203,0.071,0.4,0.105,0.593c0.034,0.192,0.065,0.372,0.094,0.538
				s0.051,0.302,0.065,0.408c0.015-0.106,0.035-0.241,0.062-0.404c0.026-0.164,0.054-0.338,0.083-0.524
				c0.029-0.186,0.062-0.377,0.098-0.575c0.036-0.197,0.069-0.381,0.098-0.552s0.057-0.323,0.083-0.456
				c0.026-0.132,0.047-0.228,0.062-0.285l1.466-5.917h1.965l1.467,5.917c0.014,0.058,0.035,0.153,0.062,0.285
				c0.026,0.133,0.055,0.285,0.086,0.456s0.064,0.355,0.098,0.552c0.034,0.198,0.066,0.389,0.098,0.575
				c0.031,0.186,0.06,0.36,0.086,0.524c0.026,0.164,0.047,0.298,0.062,0.404c0.014-0.106,0.035-0.242,0.062-0.408
				c0.026-0.166,0.056-0.346,0.09-0.538c0.034-0.193,0.068-0.39,0.104-0.593c0.036-0.202,0.071-0.395,0.105-0.578
				s0.063-0.348,0.09-0.495c0.026-0.147,0.047-0.259,0.061-0.336l1.2-5.765h2.204L137.296,137.807z"/>
			<path fill="#FFFFFF" d="M146.888,137.807h-1.563v-3.191h-2.513v3.191h-1.568v-7.394h1.568v2.898h2.513v-2.898h1.563V137.807z"/>
			<path fill="#FFFFFF" d="M153.303,137.807l-0.506-1.76h-2.549l-0.511,1.76h-1.583l2.402-7.424h1.917l2.413,7.424H153.303z
				 M152.433,134.732l-0.475-1.619c-0.021-0.061-0.051-0.16-0.091-0.298c-0.04-0.138-0.083-0.291-0.129-0.458
				s-0.088-0.334-0.129-0.503c-0.041-0.168-0.069-0.312-0.086-0.43c-0.014,0.074-0.031,0.162-0.053,0.263
				c-0.022,0.102-0.047,0.208-0.076,0.321c-0.029,0.113-0.058,0.227-0.088,0.341c-0.03,0.115-0.059,0.223-0.086,0.324
				c-0.027,0.101-0.052,0.19-0.074,0.268s-0.038,0.135-0.048,0.172l-0.47,1.619H152.433z"/>
			<path fill="#FFFFFF" d="M158.222,137.807h-1.563v-6.089h-1.856v-1.305h5.27v1.305h-1.852V137.807z"/>
			<path fill="#FFFFFF" d="M163.522,127.245l0.108,0.159c-0.067,0.265-0.147,0.543-0.241,0.834
				c-0.095,0.292-0.198,0.588-0.312,0.889c-0.112,0.301-0.23,0.599-0.354,0.893c-0.123,0.293-0.244,0.575-0.365,0.845h-1.582
				c0.067-0.289,0.136-0.593,0.206-0.911c0.069-0.318,0.138-0.636,0.202-0.954c0.065-0.318,0.124-0.626,0.177-0.925
				c0.054-0.298,0.099-0.575,0.138-0.831H163.522z"/>
			<path fill="#FFFFFF" d="M169.245,135.754c0,0.331-0.057,0.628-0.169,0.893c-0.113,0.265-0.278,0.491-0.496,0.678
				s-0.483,0.331-0.799,0.432c-0.315,0.102-0.677,0.152-1.085,0.152c-0.357,0-0.702-0.037-1.034-0.111s-0.64-0.185-0.923-0.333
				v-1.457c0.162,0.078,0.325,0.152,0.49,0.225c0.165,0.072,0.333,0.137,0.503,0.194c0.171,0.058,0.341,0.103,0.511,0.137
				c0.171,0.034,0.34,0.051,0.509,0.051c0.172,0,0.319-0.02,0.442-0.058c0.123-0.039,0.223-0.093,0.299-0.162
				c0.075-0.069,0.131-0.152,0.167-0.248c0.035-0.096,0.053-0.202,0.053-0.316c0-0.138-0.029-0.26-0.089-0.367
				c-0.059-0.106-0.142-0.206-0.247-0.298c-0.106-0.093-0.234-0.183-0.385-0.271c-0.15-0.087-0.318-0.18-0.503-0.278
				c-0.155-0.081-0.329-0.178-0.521-0.293s-0.373-0.257-0.543-0.428c-0.171-0.17-0.313-0.375-0.428-0.617s-0.172-0.53-0.172-0.867
				c0-0.331,0.055-0.626,0.164-0.888s0.266-0.482,0.468-0.663s0.447-0.318,0.736-0.412c0.288-0.094,0.61-0.142,0.968-0.142
				c0.179,0,0.354,0.012,0.523,0.035c0.171,0.024,0.339,0.058,0.506,0.102c0.167,0.043,0.335,0.098,0.504,0.162
				c0.168,0.064,0.342,0.138,0.521,0.223l-0.506,1.219c-0.151-0.071-0.293-0.133-0.425-0.187c-0.132-0.054-0.26-0.1-0.384-0.137
				c-0.125-0.037-0.247-0.065-0.367-0.083s-0.24-0.028-0.361-0.028c-0.264,0-0.465,0.07-0.604,0.21s-0.21,0.326-0.21,0.559
				c0,0.125,0.021,0.235,0.063,0.332s0.109,0.186,0.202,0.271s0.212,0.17,0.359,0.258c0.146,0.088,0.324,0.187,0.533,0.298
				c0.253,0.135,0.485,0.272,0.698,0.412c0.212,0.14,0.395,0.295,0.548,0.465c0.154,0.17,0.272,0.363,0.357,0.579
				C169.203,135.211,169.245,135.464,169.245,135.754z"/>
			<path fill="#FFFFFF" d="M178.036,137.807h-3.363v-0.89l0.9-0.415v-4.784l-0.9-0.415v-0.89h3.363v0.89l-0.9,0.415v4.784l0.9,0.415
				V137.807z"/>
			<path fill="#FFFFFF" d="M185.877,137.807h-1.988l-2.907-5.593h-0.046c0.021,0.259,0.037,0.518,0.051,0.773
				c0.014,0.219,0.024,0.45,0.032,0.69c0.009,0.241,0.013,0.458,0.013,0.65v3.479h-1.4v-7.394h1.978l2.902,5.538h0.03
				c-0.01-0.256-0.021-0.509-0.035-0.759c-0.003-0.108-0.008-0.218-0.013-0.331s-0.009-0.226-0.013-0.339
				c-0.003-0.113-0.006-0.222-0.007-0.326c-0.002-0.104-0.003-0.199-0.003-0.283v-3.5h1.406V137.807z"/>
			<path fill="#FFFFFF" d="M152.031,155.563l-2.319-8.287h-0.065c0.029,0.443,0.053,0.872,0.072,1.286
				c0.01,0.178,0.018,0.361,0.025,0.549s0.014,0.373,0.021,0.556s0.012,0.359,0.015,0.527c0.002,0.169,0.003,0.32,0.003,0.455v4.913
				h-2.001V145h3.049l2.283,8.077h0.043l2.428-8.077h3.048v10.563h-2.087v-5c0-0.125,0-0.268,0.003-0.426
				c0.003-0.159,0.006-0.328,0.011-0.506s0.011-0.359,0.018-0.542c0.008-0.183,0.014-0.361,0.019-0.534
				c0.019-0.405,0.036-0.826,0.051-1.265h-0.058l-2.5,8.272H152.031z"/>
			<path fill="#FFFFFF" d="M163.462,151.214l1.335-3.045h1.689l-2.246,4.517v2.877h-1.558v-2.827l-2.245-4.567h1.699
				L163.462,151.214z"/>
			<path fill="#FFFFFF" d="M135.927,173.318h-2.203v-10.563h6.054v1.835h-3.851v2.724h3.583v1.828h-3.583V173.318z"/>
			<path fill="#FFFFFF" d="M143.487,170.481v2.837h-1.568v-7.394h2.023c0.947,0,1.647,0.183,2.099,0.549
				c0.452,0.365,0.678,0.921,0.678,1.666c0,0.253-0.034,0.482-0.101,0.688c-0.067,0.206-0.158,0.389-0.271,0.549
				c-0.113,0.16-0.243,0.301-0.39,0.42c-0.146,0.12-0.301,0.22-0.462,0.301c0.374,0.601,0.709,1.137,1.006,1.608
				c0.128,0.202,0.252,0.399,0.372,0.592s0.227,0.364,0.321,0.516c0.094,0.151,0.172,0.273,0.232,0.364l0.086,0.142h-1.74
				l-1.603-2.837H143.487z M143.487,169.207h0.425c0.435,0,0.747-0.087,0.936-0.261c0.188-0.174,0.283-0.429,0.283-0.767
				c0-0.351-0.101-0.6-0.304-0.748c-0.202-0.148-0.516-0.223-0.94-0.223h-0.399V169.207z"/>
			<path fill="#FFFFFF" d="M151.541,173.318h-3.363v-0.89l0.9-0.415v-4.784l-0.9-0.415v-0.89h3.363v0.89l-0.9,0.415v4.784l0.9,0.415
				V173.318z"/>
			<path fill="#FFFFFF" d="M158.856,169.551c0,0.624-0.085,1.171-0.256,1.641c-0.17,0.471-0.416,0.863-0.737,1.179
				c-0.322,0.315-0.717,0.552-1.184,0.711c-0.467,0.158-0.999,0.237-1.596,0.237h-1.947v-7.394h2.165
				c0.542,0,1.033,0.077,1.469,0.232s0.81,0.385,1.12,0.69c0.311,0.305,0.549,0.684,0.716,1.135
				C158.772,168.435,158.856,168.957,158.856,169.551z M157.269,169.591c0-0.411-0.042-0.766-0.124-1.064
				c-0.082-0.298-0.202-0.545-0.359-0.741c-0.156-0.195-0.349-0.34-0.576-0.435s-0.488-0.142-0.781-0.142h-0.723v4.814h0.576
				c0.661,0,1.157-0.202,1.49-0.606C157.103,171.012,157.269,170.403,157.269,169.591z"/>
			<path fill="#FFFFFF" d="M163.526,169.166h2.934V173c-0.196,0.063-0.393,0.122-0.592,0.174c-0.199,0.053-0.405,0.097-0.62,0.132
				c-0.214,0.035-0.438,0.063-0.672,0.084c-0.234,0.02-0.483,0.03-0.746,0.03c-0.553,0-1.043-0.082-1.47-0.246
				c-0.426-0.163-0.785-0.406-1.077-0.728c-0.291-0.322-0.513-0.72-0.665-1.194c-0.151-0.474-0.228-1.021-0.228-1.641
				c0-0.58,0.085-1.104,0.253-1.573c0.169-0.468,0.417-0.867,0.746-1.195c0.329-0.329,0.733-0.582,1.214-0.759
				s1.031-0.266,1.651-0.266c0.395,0,0.78,0.042,1.158,0.126c0.377,0.085,0.723,0.194,1.036,0.329l-0.521,1.254
				c-0.229-0.114-0.488-0.21-0.776-0.288c-0.288-0.077-0.591-0.116-0.908-0.116c-0.344,0-0.652,0.06-0.928,0.18
				c-0.274,0.119-0.51,0.289-0.705,0.508c-0.196,0.22-0.346,0.484-0.45,0.794c-0.104,0.311-0.157,0.656-0.157,1.037
				c0,0.364,0.036,0.697,0.109,0.999c0.072,0.302,0.186,0.563,0.341,0.781s0.355,0.39,0.6,0.511s0.537,0.182,0.877,0.182
				c0.223,0,0.411-0.01,0.564-0.03c0.153-0.02,0.297-0.043,0.433-0.07v-1.543h-1.401V169.166z"/>
			<path fill="#FFFFFF" d="M172.81,173.318h-4.258v-7.394h4.258v1.284h-2.69v1.623h2.504v1.285h-2.504v1.906h2.69V173.318z"/>
			<path fill="#FFFFFF" d="M175.66,169.814v-0.535c0-0.245,0.025-0.468,0.076-0.668s0.127-0.39,0.231-0.57
				c0.104-0.181,0.236-0.356,0.4-0.527s0.361-0.349,0.593-0.531c0.202-0.159,0.373-0.301,0.513-0.427
				c0.14-0.125,0.253-0.249,0.34-0.372c0.087-0.122,0.149-0.251,0.188-0.387c0.039-0.135,0.058-0.291,0.058-0.469
				c0-0.275-0.093-0.501-0.278-0.68c-0.185-0.178-0.468-0.268-0.849-0.268c-0.332,0-0.689,0.07-1.072,0.21
				c-0.384,0.14-0.779,0.311-1.188,0.513l-0.737-1.597c0.207-0.12,0.433-0.234,0.676-0.343s0.496-0.205,0.758-0.289
				c0.263-0.084,0.529-0.15,0.799-0.199c0.27-0.048,0.534-0.072,0.795-0.072c0.491,0,0.935,0.06,1.329,0.178s0.729,0.29,1.004,0.517
				c0.275,0.227,0.485,0.501,0.633,0.823c0.146,0.323,0.22,0.691,0.22,1.105c0,0.304-0.033,0.574-0.101,0.813s-0.168,0.46-0.3,0.665
				c-0.133,0.205-0.299,0.402-0.499,0.593c-0.199,0.19-0.432,0.391-0.697,0.603c-0.202,0.159-0.367,0.298-0.494,0.416
				c-0.128,0.118-0.228,0.229-0.3,0.336c-0.072,0.105-0.122,0.216-0.148,0.328c-0.026,0.113-0.04,0.247-0.04,0.401v0.434H175.66z
				 M175.422,172.285c0-0.227,0.032-0.418,0.098-0.574c0.064-0.156,0.155-0.283,0.271-0.38c0.116-0.096,0.252-0.166,0.408-0.209
				c0.157-0.043,0.324-0.065,0.502-0.065c0.169,0,0.329,0.022,0.48,0.065c0.152,0.043,0.286,0.113,0.401,0.209
				c0.115,0.097,0.207,0.224,0.274,0.38s0.102,0.348,0.102,0.574c0,0.217-0.034,0.402-0.102,0.557s-0.159,0.281-0.274,0.383
				c-0.115,0.101-0.249,0.175-0.401,0.22c-0.151,0.046-0.312,0.069-0.48,0.069c-0.178,0-0.345-0.023-0.502-0.069
				c-0.156-0.045-0.292-0.119-0.408-0.22c-0.115-0.102-0.206-0.229-0.271-0.383C175.454,172.688,175.422,172.502,175.422,172.285z"
				/>
		</g>
		<g>
			<path fill="#FFFFFF" d="M180.443,182.133h-1.284v-4.721h1.284v0.558h-0.595v3.605h0.595V182.133z"/>
			<path fill="#FFFFFF" d="M181.063,180.898c0-0.083,0.012-0.153,0.036-0.21c0.023-0.058,0.057-0.104,0.1-0.139
				c0.042-0.035,0.092-0.062,0.148-0.077s0.117-0.023,0.183-0.023c0.063,0,0.121,0.008,0.177,0.023s0.104,0.042,0.147,0.077
				c0.042,0.035,0.076,0.081,0.101,0.139c0.024,0.057,0.037,0.127,0.037,0.21c0,0.079-0.013,0.147-0.037,0.203
				c-0.024,0.057-0.059,0.104-0.101,0.141c-0.043,0.037-0.092,0.063-0.147,0.08s-0.114,0.025-0.177,0.025
				c-0.065,0-0.126-0.009-0.183-0.025s-0.106-0.043-0.148-0.08c-0.043-0.037-0.076-0.084-0.1-0.141
				C181.075,181.046,181.063,180.978,181.063,180.898z"/>
			<path fill="#FFFFFF" d="M183.972,179.01c-0.11,0-0.207,0.021-0.292,0.063c-0.085,0.043-0.156,0.104-0.214,0.184
				s-0.102,0.177-0.131,0.29c-0.03,0.114-0.045,0.242-0.045,0.385c0,0.144,0.014,0.272,0.04,0.385s0.067,0.207,0.123,0.284
				c0.055,0.076,0.125,0.135,0.212,0.175c0.086,0.041,0.188,0.061,0.307,0.061c0.11,0,0.221-0.013,0.332-0.037
				c0.11-0.024,0.231-0.06,0.361-0.105v0.481c-0.06,0.024-0.118,0.046-0.177,0.063c-0.058,0.018-0.117,0.031-0.178,0.043
				c-0.062,0.011-0.123,0.02-0.188,0.024c-0.063,0.006-0.132,0.009-0.205,0.009c-0.209,0-0.391-0.033-0.544-0.1
				c-0.153-0.067-0.28-0.161-0.381-0.281c-0.101-0.121-0.175-0.267-0.223-0.438c-0.049-0.17-0.073-0.359-0.073-0.567
				c0-0.205,0.028-0.393,0.084-0.563s0.138-0.318,0.245-0.441s0.241-0.22,0.399-0.288s0.341-0.103,0.546-0.103
				c0.136,0,0.271,0.018,0.406,0.051c0.136,0.034,0.266,0.081,0.39,0.14l-0.187,0.467c-0.102-0.048-0.203-0.09-0.307-0.126
				C184.172,179.027,184.071,179.01,183.972,179.01z"/>
			<path fill="#FFFFFF" d="M186.914,181.276l-0.187-0.644h-0.936l-0.188,0.644h-0.581l0.883-2.716h0.704l0.886,2.716H186.914z
				 M186.594,180.151l-0.174-0.592c-0.008-0.022-0.019-0.059-0.034-0.109c-0.015-0.051-0.03-0.106-0.047-0.167
				c-0.017-0.062-0.032-0.123-0.048-0.185c-0.015-0.062-0.025-0.114-0.031-0.157c-0.005,0.027-0.012,0.06-0.02,0.096
				c-0.008,0.037-0.018,0.076-0.028,0.118c-0.01,0.041-0.021,0.083-0.032,0.125c-0.011,0.042-0.021,0.081-0.031,0.118
				s-0.02,0.069-0.027,0.098s-0.014,0.05-0.018,0.063l-0.173,0.592H186.594z"/>
			<path fill="#FFFFFF" d="M187.753,181.575h0.592v-3.605h-0.592v-0.558h1.284v4.721h-1.284V181.575z"/>
		</g>
	</g>
	<g>
	</g>
	<g>
	</g>
	<g>
	</g>
	<g>
	</g>
	<g>
	</g>
	<g>
	</g>
</g>
</svg>
