<?xml version="1.0" encoding="utf-8"?>
<!-- Generator: Adobe Illustrator 16.0.0, SVG Export Plug-In . SVG Version: 6.00 Build 0)  -->
<!DOCTYPE svg PUBLIC "-//W3C//DTD SVG 1.1//EN" "http://www.w3.org/Graphics/SVG/1.1/DTD/svg11.dtd">
<svg version="1.1" xmlns="http://www.w3.org/2000/svg" xmlns:xlink="http://www.w3.org/1999/xlink" x="0px" y="0px" width="310px"
	 height="310px" viewBox="0 0 310 310" enable-background="new 0 0 310 310" xml:space="preserve">
<g id="Layer_1">
	<ellipse fill="#2BA7AA" cx="155.085" cy="155.25" rx="153" ry="150.25"/>
	<ellipse opacity="0.5" fill="#3E7DB4" cx="155.085" cy="155.25" rx="153" ry="150.25"/>
</g>
<g id="Layer_2">
	<path fill="none" stroke="#FFFFFF" stroke-width="3" stroke-miterlimit="10" d="M25.652,131.776"/>
	
		<rect x="91.465" y="56.348" fill="none" stroke="#FFFFFF" stroke-width="3" stroke-miterlimit="10" width="127.389" height="198.152"/>
	<path fill="none" stroke="#FFFFFF" stroke-width="4" stroke-miterlimit="10" d="M11.535,105.553C36,106,59,106,82.503,105.553"/>
	<line fill="none" stroke="#FFFFFF" stroke-width="4" stroke-miterlimit="10" x1="13.168" y1="152.181" x2="81.671" y2="152.181"/>
	<line fill="none" stroke="#FFFFFF" stroke-width="4" stroke-miterlimit="10" x1="13.168" y1="201.553" x2="81.671" y2="201.553"/>
	<path fill="none" stroke="#FFFFFF" stroke-width="4" stroke-miterlimit="10" d="M230.355,105.727C253,106,276,106,299.129,105.727"
		/>
	
		<line fill="none" stroke="#FFFFFF" stroke-width="4" stroke-miterlimit="10" x1="229.523" y1="152.356" x2="301.323" y2="152.356"/>
	<path fill="none" stroke="#FFFFFF" stroke-width="4" stroke-miterlimit="10" d="M229.523,201.727C253,202,277,202,299.797,201.727"
		/>
	<path fill="#FFFFFF" d="M13.163,97.841c-0.03,0.984-0.31,1.957-0.84,2.771c-0.11,0.488-0.292,0.955-0.53,1.387
		c-0.093,0.803-0.355,1.58-0.786,2.251c-0.157,0.698-0.442,1.36-0.862,1.93c-0.069,0.774-0.294,1.531-0.676,2.197
		c0.062,1.23-0.247,2.481-0.97,3.459v86.834c0.257,0.463,0.437,0.969,0.545,1.491c0.624,1.011,0.858,2.246,0.733,3.44
		c0.123,0.312,0.217,0.635,0.282,0.966c0.426,0.712,0.664,1.526,0.727,2.359c0.326,0.561,0.541,1.186,0.644,1.834
		c0.513,0.663,0.853,1.451,0.993,2.286c0.28,0.233,0.532,0.493,0.744,0.781V97.836C13.167,97.838,13.165,97.839,13.163,97.841z"/>
	<path fill="#FFFFFF" d="M39.464,56.348c-0.356,0.925-0.989,1.718-1.862,2.26c-0.274,0.928-0.792,1.771-1.557,2.386
		c-0.001,0.001-0.002,0.003-0.003,0.005h45.629v188H35.433c0.716,0.529,1.144,1.26,1.353,2.068c0.597,0.503,1.036,1.148,1.321,1.863
		c0.69,0.384,1.229,0.93,1.621,1.568h45.606V56.348H39.464z"/>
	<path fill="#FFFFFF" d="M274.377,250.033c0.254-0.382,0.543-0.741,0.908-1.033h-44.428V61h43.97
		c-0.075-0.135-0.135-0.278-0.197-0.419c-0.684-0.444-1.202-1.056-1.558-1.756c-1.068-0.53-1.809-1.428-2.212-2.476h-44.671V254.5
		h43.968c0.094-0.124,0.189-0.247,0.298-0.368c0.706-0.79,1.44-1.492,2.201-2.125C273.025,251.209,273.599,250.514,274.377,250.033z
		"/>
	<path fill="#FFFFFF" d="M299.36,206.265c0.08-0.167,0.171-0.328,0.269-0.484c0.111-0.509,0.316-0.985,0.567-1.437
		c0.057-0.5,0.179-0.989,0.366-1.45c0.094-0.734,0.335-1.44,0.717-2.064c0.059-0.286,0.141-0.565,0.244-0.836
		c0.054-0.862,0.306-1.7,0.742-2.432c0.058-0.293,0.138-0.581,0.241-0.859c0.037-0.729,0.204-1.447,0.517-2.097v-78.509
		c-1.018-1.189-1.384-2.876-1.108-4.43c-1.058-1.066-1.521-2.626-1.4-4.13c-0.61-0.812-0.942-1.816-1.006-2.842
		c-0.054-0.095-0.101-0.193-0.148-0.292"/>
</g>
<g id="Layer_6">
	<rect x="93.082" y="58.187" width="123.98" height="194.417"/>
</g>
<g id="Layer_7">
	
		<line opacity="0.3" fill="none" stroke="#F9F9FA" stroke-width="3" stroke-miterlimit="10" x1="91.317" y1="198.825" x2="218.854" y2="198.825"/>
	
		<line opacity="0.3" fill="none" stroke="#F9F9FA" stroke-width="3" stroke-miterlimit="10" x1="156.168" y1="200.52" x2="156.168" y2="253.5"/>
	
		<line opacity="0.3" fill="none" stroke="#F9F9FA" stroke-width="3" stroke-miterlimit="10" x1="91.062" y1="121.5" x2="217.318" y2="121.5"/>
	
		<line opacity="0.3" fill="none" stroke="#F9F9FA" stroke-width="3" stroke-miterlimit="10" x1="93.01" y1="89.588" x2="219.93" y2="89.588"/>
	<path opacity="0.3" fill="#FFFFFF" d="M137.554,207.486c0,1.095-0.887,1.981-1.981,1.981h-21.691c-1.094,0-1.981-0.887-1.981-1.981
		l0,0c0-1.095,0.887-1.981,1.981-1.981h21.691C136.667,205.505,137.554,206.392,137.554,207.486L137.554,207.486z"/>
	<path opacity="0.3" fill="#FFFFFF" d="M199.241,207.486c0,1.095-0.888,1.981-1.981,1.981h-21.691c-1.094,0-1.98-0.887-1.98-1.981
		l0,0c0-1.095,0.887-1.981,1.98-1.981h21.691C198.354,205.505,199.241,206.392,199.241,207.486L199.241,207.486z"/>
</g>
<g id="Layer_4">
	<g>
		<path fill="none" stroke="#F8DE0F" stroke-width="3" stroke-linecap="round" stroke-miterlimit="10" d="M162.026,108.819
			c-0.119,1.599-0.242,3.198-0.367,4.796"/>
		<path fill="none" stroke="#F8DE0F" stroke-width="3" stroke-linecap="round" stroke-miterlimit="10" d="M162.43,93.571
			c0.896-8.042,1.752-16.089,2.572-24.139"/>
		<path fill="none" stroke="#F8DE0F" stroke-width="3" stroke-linecap="round" stroke-miterlimit="10" d="M165.712,62.389
			c0.4-4.026,0.793-8.054,1.178-12.081"/>
		<path fill="none" stroke="#F8DE0F" stroke-width="3" stroke-linecap="round" stroke-miterlimit="10" d="M116.638,97.782
			c-2.98-4.412-5.966-8.821-8.958-13.226"/>
		<path fill="none" stroke="#F8DE0F" stroke-width="3" stroke-linecap="round" stroke-miterlimit="10" d="M134.842,124.877
			c-3.473-5.197-6.954-10.389-10.441-15.576"/>
		<path fill="none" stroke="#F8DE0F" stroke-width="3" stroke-linecap="round" stroke-miterlimit="10" d="M103.594,78.772
			c-2.279-3.343-4.569-6.68-6.865-10.011"/>
		<path fill="none" stroke="#F8DE0F" stroke-width="3" stroke-linecap="round" stroke-miterlimit="10" d="M95.546,139.422
			c-7.389-2.113-14.781-4.216-22.176-6.308"/>
		<path fill="none" stroke="#F8DE0F" stroke-width="3" stroke-linecap="round" stroke-miterlimit="10" d="M125.088,147.935
			c-5.816-1.688-11.633-3.37-17.453-5.045"/>
		<path fill="none" stroke="#F8DE0F" stroke-width="3" stroke-linecap="round" stroke-miterlimit="10" d="M66.538,131.249
			c-3.895-1.091-7.792-2.176-11.692-3.253"/>
		<path fill="none" stroke="#F8DE0F" stroke-width="3" stroke-linecap="round" stroke-miterlimit="10" d="M103.731,180.938
			c-8.485,3.759-16.961,7.538-25.428,11.337"/>
		<path fill="none" stroke="#F8DE0F" stroke-width="3" stroke-linecap="round" stroke-miterlimit="10" d="M124.749,171.679
			c-3.187,1.396-6.373,2.796-9.558,4.198"/>
		<path fill="none" stroke="#F8DE0F" stroke-width="3" stroke-linecap="round" stroke-miterlimit="10" d="M70.85,195.733
			c-4.961,2.243-9.914,4.496-14.863,6.759"/>
		<path fill="none" stroke="#F8DE0F" stroke-width="3" stroke-linecap="round" stroke-miterlimit="10" d="M130.883,212.696
			c-3.589,7.252-7.146,14.52-10.672,21.802"/>
		<path fill="none" stroke="#F8DE0F" stroke-width="3" stroke-linecap="round" stroke-miterlimit="10" d="M117.135,240.876
			c-1.753,3.646-3.498,7.296-5.235,10.949"/>
		<path fill="none" stroke="#F8DE0F" stroke-width="3" stroke-linecap="round" stroke-miterlimit="10" d="M173.528,216.304
			c1.912,7.862,3.858,15.716,5.838,23.563"/>
		<path fill="none" stroke="#F8DE0F" stroke-width="3" stroke-linecap="round" stroke-miterlimit="10" d="M181.11,246.728
			c1.002,3.919,2.012,7.837,3.029,11.754"/>
		<path fill="none" stroke="#F8DE0F" stroke-width="3" stroke-linecap="round" stroke-miterlimit="10" d="M216.025,197.157
			c4.028,2.941,8.065,5.871,12.108,8.79"/>
		<path fill="none" stroke="#F8DE0F" stroke-width="3" stroke-linecap="round" stroke-miterlimit="10" d="M190.821,178.38
			c6.698,4.931,13.407,9.849,20.105,14.78"/>
		<path fill="none" stroke="#F8DE0F" stroke-width="3" stroke-linecap="round" stroke-miterlimit="10" d="M233.88,210.086
			c3.286,2.361,6.579,4.711,9.877,7.057"/>
		<path fill="none" stroke="#F8DE0F" stroke-width="3" stroke-linecap="round" stroke-miterlimit="10" d="M210.604,150.004
			c-7.458,0.781-14.923,1.506-22.392,2.177"/>
		<path fill="none" stroke="#F8DE0F" stroke-width="3" stroke-linecap="round" stroke-miterlimit="10" d="M223.174,150.041
			c6.839-0.448,13.679-0.92,20.516-1.419"/>
		<path fill="none" stroke="#F8DE0F" stroke-width="3" stroke-linecap="round" stroke-miterlimit="10" d="M250.751,148.096
			c4.034-0.303,8.068-0.617,12.103-0.939"/>
		<path fill="none" stroke="#F8DE0F" stroke-width="3" stroke-linecap="round" stroke-miterlimit="10" d="M208.873,104.435
			c3.322-3.214,6.641-6.431,9.956-9.652"/>
		<path fill="none" stroke="#F8DE0F" stroke-width="3" stroke-linecap="round" stroke-miterlimit="10" d="M191.396,121.271
			c2.668-2.561,5.334-5.123,7.998-7.688"/>
		<path fill="none" stroke="#F8DE0F" stroke-width="3" stroke-linecap="round" stroke-miterlimit="10" d="M223.829,89.768
			c2.896-2.828,5.786-5.66,8.667-8.499"/>
		<path fill="none" stroke="#F8DE0F" stroke-width="3" stroke-linecap="round" stroke-miterlimit="10" d="M149.287,64.653
			c0.536,6.076,1.07,12.152,1.605,18.229"/>
		<path fill="none" stroke="#F8DE0F" stroke-width="3" stroke-linecap="round" stroke-miterlimit="10" d="M92.84,92.105
			c4.487,4.483,8.976,8.966,13.465,13.448"/>
		<path fill="none" stroke="#F8DE0F" stroke-width="3" stroke-linecap="round" stroke-miterlimit="10" d="M68.207,147.898
			c8.498,0.738,16.997,1.477,25.492,2.213"/>
		<path fill="none" stroke="#F8DE0F" stroke-width="3" stroke-linecap="round" stroke-miterlimit="10" d="M82.503,208.804
			c6.892-4.832,13.787-9.663,20.674-14.503"/>
		<path fill="none" stroke="#F8DE0F" stroke-width="3" stroke-linecap="round" stroke-miterlimit="10" d="M138.804,215.374
			c0.573-2.153,1.147-4.304,1.724-6.456"/>
		<path fill="none" stroke="#F8DE0F" stroke-width="3" stroke-linecap="round" stroke-miterlimit="10" d="M133.675,243.8
			c1.06-3.968,2.119-7.938,3.18-11.903"/>
		<path fill="none" stroke="#F8DE0F" stroke-width="3" stroke-linecap="round" stroke-miterlimit="10" d="M187.998,221.931
			c-3.521-7.535-7.041-15.07-10.562-22.605"/>
		<path fill="none" stroke="#F8DE0F" stroke-width="3" stroke-linecap="round" stroke-miterlimit="10" d="M195.661,238.336
			c-1.738-3.722-3.479-7.443-5.218-11.163"/>
		<path fill="none" stroke="#F8DE0F" stroke-width="3" stroke-linecap="round" stroke-miterlimit="10" d="M239.633,194.306
			c-3.723-1.734-7.448-3.464-11.174-5.2"/>
		<path fill="none" stroke="#F8DE0F" stroke-width="3" stroke-linecap="round" stroke-miterlimit="10" d="M245.014,132.312
			c-3.967,1.065-7.931,2.133-11.9,3.196"/>
		<path fill="none" stroke="#F8DE0F" stroke-width="3" stroke-linecap="round" stroke-miterlimit="10" d="M198.913,96.201
			c-2.502,3.58-5.004,7.16-7.509,10.74"/>
		<path fill="none" stroke="#F8DE0F" stroke-width="3" stroke-linecap="round" stroke-miterlimit="10" d="M142.665,99.827
			c1.269,4.715,2.534,9.432,3.803,14.148"/>
		<path fill="none" stroke="#F8DE0F" stroke-width="3" stroke-linecap="round" stroke-miterlimit="10" d="M133.039,66.129
			c2.351,8.744,4.698,17.486,7.047,26.23"/>
		<path fill="none" stroke="#F8DE0F" stroke-width="3" stroke-linecap="round" stroke-miterlimit="10" d="M127.222,44.478
			c1.363,5.076,2.729,10.154,4.092,15.229"/>
		<path fill="none" stroke="#F8DE0F" stroke-width="3" stroke-linecap="round" stroke-miterlimit="10" d="M110.162,123.053
			c2.671,1.868,5.342,3.736,8.014,5.604"/>
		<path fill="none" stroke="#F8DE0F" stroke-width="3" stroke-linecap="round" stroke-miterlimit="10" d="M80.969,102.64
			c6.106,4.27,12.212,8.539,18.318,12.809"/>
		<path fill="none" stroke="#F8DE0F" stroke-width="3" stroke-linecap="round" stroke-miterlimit="10" d="M64.521,91.14
			c3.666,2.563,7.332,5.125,10.997,7.689"/>
		<path fill="none" stroke="#F8DE0F" stroke-width="3" stroke-linecap="round" stroke-miterlimit="10" d="M101.906,161.293
			c4.651-0.414,9.303-0.819,13.954-1.233"/>
		<path fill="none" stroke="#F8DE0F" stroke-width="3" stroke-linecap="round" stroke-miterlimit="10" d="M51.345,165.244
			c13.419-1.185,26.84-2.366,40.259-3.551"/>
		<path fill="none" stroke="#F8DE0F" stroke-width="3" stroke-linecap="round" stroke-miterlimit="10" d="M91.465,221.697
			c6.396-6.406,12.795-12.811,19.191-19.217"/>
		<path fill="none" stroke="#F8DE0F" stroke-width="3" stroke-linecap="round" stroke-miterlimit="10" d="M78.94,234.236
			c2.607-2.611,5.215-5.222,7.824-7.834"/>
		<path fill="none" stroke="#F8DE0F" stroke-width="3" stroke-linecap="round" stroke-miterlimit="10" d="M152.405,211.16
			c0.119-1.373,0.237-2.747,0.356-4.12"/>
		<path fill="none" stroke="#F8DE0F" stroke-width="3" stroke-linecap="round" stroke-miterlimit="10" d="M149.117,248.534
			c0.648-7.458,1.297-14.92,1.944-22.378"/>
		<path fill="none" stroke="#F8DE0F" stroke-width="3" stroke-linecap="round" stroke-miterlimit="10" d="M147.644,265.523
			c0.299-3.455,0.6-6.908,0.901-10.362"/>
		<path fill="none" stroke="#F8DE0F" stroke-width="3" stroke-linecap="round" stroke-miterlimit="10" d="M210.534,232.034
			c-5.198-7.411-10.395-14.824-15.591-22.236"/>
		<path fill="none" stroke="#F8DE0F" stroke-width="3" stroke-linecap="round" stroke-miterlimit="10" d="M221.481,247.646
			c-2.378-3.389-4.752-6.777-7.127-10.166"/>
		<path fill="none" stroke="#F8DE0F" stroke-width="3" stroke-linecap="round" stroke-miterlimit="10" d="M213.027,169.146
			c-3.775-1.007-7.549-2.016-11.323-3.026"/>
		<path fill="none" stroke="#F8DE0F" stroke-width="3" stroke-linecap="round" stroke-miterlimit="10" d="M246.977,179.917
			c-8.746-2.335-17.491-4.674-26.237-7.011"/>
		<path fill="none" stroke="#F8DE0F" stroke-width="3" stroke-linecap="round" stroke-miterlimit="10" d="M263.774,184.407
			c-3.458-0.924-6.915-1.847-10.373-2.773"/>
		<path fill="none" stroke="#F8DE0F" stroke-width="3" stroke-linecap="round" stroke-miterlimit="10" d="M241.394,116.568
			c-6.482,3.028-12.965,6.056-19.444,9.083"/>
		<path fill="none" stroke="#F8DE0F" stroke-width="3" stroke-linecap="round" stroke-miterlimit="10" d="M256.537,109.496
			c-3.038,1.42-6.079,2.839-9.119,4.258"/>
		<path fill="none" stroke="#F8DE0F" stroke-width="3" stroke-linecap="round" stroke-miterlimit="10" d="M182.897,103.263
			c-1.942,4.173-3.885,8.346-5.828,12.519"/>
		<path fill="none" stroke="#F8DE0F" stroke-width="3" stroke-linecap="round" stroke-miterlimit="10" d="M196.395,71.63
			c-3.82,8.209-7.641,16.416-11.461,24.624"/>
		<path fill="none" stroke="#F8DE0F" stroke-width="3" stroke-linecap="round" stroke-miterlimit="10" d="M203.592,56.173
			c-1.462,3.143-2.927,6.286-4.389,9.43"/>
		<path fill="none" stroke="#F8DE0F" stroke-width="3" stroke-linecap="round" stroke-miterlimit="10" d="M128.713,96.572
			c-2.112-4.535-4.224-9.072-6.333-13.608"/>
		<path fill="none" stroke="#F8DE0F" stroke-width="3" stroke-linecap="round" stroke-miterlimit="10" d="M90.523,173.637
			c-6.458,1.727-12.915,3.454-19.376,5.174"/>
		<path fill="none" stroke="#F8DE0F" stroke-width="3" stroke-linecap="round" stroke-miterlimit="10" d="M130.442,194.749
			c-3.994,5.712-7.989,11.423-11.986,17.132"/>
		<path fill="none" stroke="#F8DE0F" stroke-width="3" stroke-linecap="round" stroke-miterlimit="10" d="M112.216,220.133
			c-2.869,4.097-5.744,8.193-8.616,12.288"/>
		<path fill="none" stroke="#F8DE0F" stroke-width="3" stroke-linecap="round" stroke-miterlimit="10" d="M164.012,233.999
			c0.433,4.981,0.866,9.968,1.294,14.952"/>
		<path fill="none" stroke="#F8DE0F" stroke-width="3" stroke-linecap="round" stroke-miterlimit="10" d="M193.083,191.779
			c3.423,3.416,6.844,6.835,10.259,10.255"/>
		<path fill="none" stroke="#F8DE0F" stroke-width="3" stroke-linecap="round" stroke-miterlimit="10" d="M226.362,162.973
			c10.516,0.912,21.023,1.825,31.526,2.743"/>
		<path fill="none" stroke="#F8DE0F" stroke-width="3" stroke-linecap="round" stroke-miterlimit="10" d="M213.076,116.71
			c-0.736,0.512-1.467,1.026-2.201,1.538"/>
		<path fill="none" stroke="#F8DE0F" stroke-width="3" stroke-linecap="round" stroke-miterlimit="10" d="M221.356,110.943
			c4.1-2.87,8.201-5.736,12.301-8.602"/>
		<path fill="none" stroke="#F8DE0F" stroke-width="3" stroke-linecap="round" stroke-miterlimit="10" d="M177.56,74.93
			c0.845-3.14,1.69-6.28,2.535-9.42"/>
		<path fill="none" stroke="#F8DE0F" stroke-width="3" stroke-linecap="round" stroke-miterlimit="10" d="M171.772,96.468
			c0.782-2.917,1.565-5.834,2.35-8.751"/>
		
			<line fill="none" stroke="#F8DE0F" stroke-width="3" stroke-linecap="round" stroke-miterlimit="10" x1="210.875" y1="118.248" x2="206.265" y2="121.657"/>
		<path fill="none" stroke="#F8DE0F" stroke-width="3" stroke-linecap="round" stroke-miterlimit="10" d="M210.938,129.919
			c-3.685,1.619-7.369,3.238-11.055,4.856"/>
	</g>
</g>
<g id="Layer_9">
	<g>
		<g>
			<g enable-background="new    ">
				<g enable-background="new    ">
					<defs>
						<path id="SVGID_1_" enable-background="new    " d="M152.7,117.97c-4.366,0.944-8.592,2.834-12.678,5.672
							C144.108,120.804,148.334,118.914,152.7,117.97z"/>
					</defs>
					<clipPath id="SVGID_2_">
						<use xlink:href="#SVGID_1_"  overflow="visible"/>
					</clipPath>
					<g clip-path="url(#SVGID_2_)" enable-background="new    ">
						<path fill="#858585" d="M140.022,123.642c3.21-2.23,6.506-3.874,9.889-4.935v0
							C146.528,119.768,143.232,121.412,140.022,123.642"/>
						<path fill="#8A8A8A" d="M149.911,118.708L149.911,118.708c0.923-0.29,1.853-0.536,2.789-0.738v0
							C151.764,118.172,150.834,118.418,149.911,118.708"/>
					</g>
				</g>
				<g enable-background="new    ">
					<defs>
						<path id="SVGID_3_" enable-background="new    " d="M138.258,125.694c0-0.549,0.594-1.233,1.764-2.052
							C138.852,124.461,138.258,125.145,138.258,125.694z"/>
					</defs>
					<clipPath id="SVGID_4_">
						<use xlink:href="#SVGID_3_"  overflow="visible"/>
					</clipPath>
					<g clip-path="url(#SVGID_4_)" enable-background="new    ">
						<path fill="#858585" d="M138.258,125.694c0-0.549,0.594-1.233,1.764-2.052C138.852,124.461,138.258,125.145,138.258,125.694"
							/>
					</g>
				</g>
				<g>
					<path fill="#DDDDDD" d="M175.527,123.354c4.176,4.059,6.272,9.396,6.272,15.993c0,5.661-1.683,10.683-5.04,15.057
						c-0.432,0.513-3.636,3.717-9.611,9.612c-3.592,3.475-5.545,6.895-5.859,10.251c-0.081,0.864-0.153,1.72-0.234,2.583
						c-0.152,0.666-0.72,1.17-1.701,1.521c-1.134,0.387-2.007,0.585-2.637,0.585c-1.989,0-3.159-0.054-3.51-0.171
						c-0.945-0.352-1.413-1.296-1.413-2.817c0-4.688,0.801-8.415,2.403-11.187c2.583-3.366,5.139-6.741,7.677-10.143
						c3.051-4.059,4.572-7.947,4.572-11.655c0-3.636-1.044-6.57-3.132-8.793c-2.098-2.223-4.933-3.339-8.532-3.339
						c-2.889,0-6.102,1.017-9.639,3.051c-3.528,2.025-5.22,3.042-5.067,3.042c-1.206,0-1.818-3.753-1.818-11.25
						c0-0.549,0.594-1.233,1.764-2.052c6.129-4.257,12.573-6.381,19.332-6.381C165.96,117.261,171.351,119.286,175.527,123.354z"/>
				</g>
			</g>
			<g>
				<path fill="#DDDDDD" d="M157.536,184.464c2.187,0,3.996,0.792,5.427,2.376c1.422,1.584,2.133,3.465,2.133,5.652
					c0,2.187-0.72,4.104-2.169,5.742c-1.439,1.638-3.24,2.457-5.391,2.457c-2.106,0-3.87-0.819-5.301-2.457
					c-1.422-1.639-2.133-3.556-2.133-5.742c0-2.188,0.702-4.068,2.106-5.652S155.394,184.464,157.536,184.464z"/>
			</g>
		</g>
	</g>
</g>
</svg>
