<?xml version="1.0" encoding="utf-8"?>
<!-- Generator: Adobe Illustrator 16.0.0, SVG Export Plug-In . SVG Version: 6.00 Build 0)  -->
<!DOCTYPE svg PUBLIC "-//W3C//DTD SVG 1.1//EN" "http://www.w3.org/Graphics/SVG/1.1/DTD/svg11.dtd">
<svg version="1.1" id="Layer_1" xmlns="http://www.w3.org/2000/svg" xmlns:xlink="http://www.w3.org/1999/xlink" x="0px" y="0px"
	 width="612px" height="612px" viewBox="0 0 612 612" enable-background="new 0 0 612 612" xml:space="preserve">
<g>
	<g>
		<path fill="#7D7B7C" d="M301.915,578c71.852,0,141.554-28.887,192.333-79.666c50.78-50.78,79.667-120.482,79.667-192.333
			s-28.887-141.553-79.667-192.333C443.469,62.888,373.767,34,301.915,34c-71.851,0-141.553,28.887-192.333,79.667
			S29.915,234.149,29.915,306s28.887,141.553,79.667,192.333C160.362,549.113,230.064,578,301.915,578L301.915,578z"/>
	</g>
</g>
<path fill="#FFFFFF" d="M105.815,180.468l71.631-70.213l25.532,97.872L105.815,180.468z M425.674,501.745l72.341-71.632
	l-95.745-24.822L425.674,501.745z M181.702,300.326l127.659,126.95l89.362-25.531l23.404-89.362L297.135,188.27l-90.61,22.695
	L181.702,300.326z M210.78,249.262l8.511-29.078l72.34-19.149l69.504,69.503L210.78,249.262z M247.66,347.844l148.227,17.021
	l-9.22,27.659l-73.759,20.567L247.66,347.844z"/>
</svg>
