<?xml version="1.0" encoding="utf-8"?>
<!-- Generator: Adobe Illustrator 16.0.0, SVG Export Plug-In . SVG Version: 6.00 Build 0)  -->
<!DOCTYPE svg PUBLIC "-//W3C//DTD SVG 1.1//EN" "http://www.w3.org/Graphics/SVG/1.1/DTD/svg11.dtd">
<svg version="1.1" xmlns="http://www.w3.org/2000/svg" xmlns:xlink="http://www.w3.org/1999/xlink" x="0px" y="0px" width="310px"
	 height="310px" viewBox="0 0 310 310" enable-background="new 0 0 310 310" xml:space="preserve">
<g id="Layer_1">
	<ellipse fill="#2BA7AA" cx="155.085" cy="155.25" rx="153" ry="150.25"/>
	<ellipse fill="#2BA7AA" cx="155.085" cy="155.25" rx="153" ry="150.25"/>
	<line fill="#2BA7AA" stroke="#FDFDFE" stroke-miterlimit="10" x1="242.125" y1="254.625" x2="273.5" y2="257.521"/>
</g>
<g id="Layer_2">
	
		<rect x="93.082" y="58.187" fill="#FFFFFF" stroke="#FFFFFF" stroke-linecap="round" stroke-miterlimit="10" width="123.98" height="194.667"/>
	<path fill="#FFFFFF" stroke="#FFFFFF" stroke-linecap="round" stroke-miterlimit="10" d="M87.773,53.187v204.334h134.333V53.187
		H87.773 M84.518,254.605l-58.865,2.916V37.584l58.865,15.603V254.605z M81,56.226l-51.5-13.75v213.25l51.5-5.25V56.226z
		 M225.652,53.187l58.865-15.603v219.937l-58.865-2.916V53.187z M229.17,250.477l51.5,5.25V42.476l-51.5,13.75V250.477z
		 M229.17,116.976l51.5-2.75v-3.25l-51.5,3.25V116.976z M229.17,158.354l51.5-2.75v-3.25l-51.5,3.25V158.354z M229.17,199.477
		l51.5-2.75v-3.25l-51.5,3.25V199.477z M80.835,115.979l-51.5-3.25v3.25l51.5,2.75V115.979z M80.835,161.604l-51.5-3.25v3.25
		l51.5,2.75V161.604z M80.835,208.48l-51.5-3.25v3.25l51.5,2.75V208.48z"/>
	<line fill="none" stroke="#FFFFFF" stroke-miterlimit="10" x1="66.667" y1="254.5" x2="38.993" y2="256.86"/>
	<line fill="none" stroke="#FFFFFF" stroke-miterlimit="10" x1="76.5" y1="254.5" x2="39.667" y2="258.333"/>
	<line fill="none" stroke="#FFFFFF" stroke-miterlimit="10" x1="62.833" y1="254.827" x2="40.833" y2="257.521"/>
	<polyline fill="none" stroke="#FFFFFF" stroke-width="3" stroke-miterlimit="10" points="284.518,131.776 292.5,131.776 
		292.5,162.342 284.518,162.342 	"/>
	<path fill="none" stroke="#FFFFFF" stroke-width="3" stroke-miterlimit="10" d="M25.652,131.776"/>
	<polyline fill="none" stroke="#F9F9FA" stroke-width="3" stroke-miterlimit="10" points="25.652,131.5 16,131.776 16,162.342 
		25.652,162.342 	"/>
</g>
<g id="Layer_8">
	<rect x="93.01" y="58.187" fill="#2BA7AA" width="123.98" height="194.667"/>
</g>
<g id="Layer_6">
	<path fill="#2BA7AA" d="M177.881,159.921v-15.815h12.17v-17.22h-50.57c-0.765,1.3-2.132,2.239-4.106,2.239
		c-0.921,0-1.706-0.209-2.363-0.559c-0.798,0.794-1.926,1.309-3.387,1.309c-2.336,0-3.822-1.315-4.465-2.989h-3.098v17.22h12.929
		v15.815h-0.792c0.148,2.604-1.457,5.329-4.823,5.329c-1.814,0-3.118-0.792-3.912-1.93v4.357c0.528-0.191,1.121-0.303,1.787-0.303
		c5.659,0,6.351,7.698,2.078,9.585h2.758c0.753-1.351,2.141-2.335,4.164-2.335s3.411,0.984,4.164,2.335h53.189v-17.039H177.881z"/>
</g>
<g id="Layer_7">
	
		<line opacity="0.8" fill="none" stroke="#F9F9FA" stroke-width="4" stroke-miterlimit="10" x1="91.317" y1="199.825" x2="218.854" y2="199.825"/>
	
		<line opacity="0.8" fill="none" stroke="#F9F9FA" stroke-width="4" stroke-miterlimit="10" x1="156.168" y1="201.52" x2="156.168" y2="254.5"/>
	
		<line opacity="0.8" fill="none" stroke="#F9F9FA" stroke-width="4" stroke-miterlimit="10" x1="91.062" y1="122.5" x2="217.318" y2="122.5"/>
	
		<line opacity="0.9" fill="none" stroke="#F9F9FA" stroke-width="4" stroke-miterlimit="10" x1="93.01" y1="90.588" x2="219.93" y2="90.588"/>
	<path opacity="0.8" fill="#FFFFFF" d="M137.554,208.486c0,1.095-0.887,1.981-1.981,1.981h-21.691c-1.094,0-1.981-0.887-1.981-1.981
		l0,0c0-1.095,0.887-1.981,1.981-1.981h21.691C136.667,206.505,137.554,207.392,137.554,208.486L137.554,208.486z"/>
	<path opacity="0.8" fill="#FFFFFF" d="M199.241,208.486c0,1.095-0.888,1.981-1.981,1.981h-21.691c-1.094,0-1.98-0.887-1.98-1.981
		l0,0c0-1.095,0.887-1.981,1.98-1.981h21.691C198.354,206.505,199.241,207.392,199.241,208.486L199.241,208.486z"/>
</g>
<g id="Layer_4">
	<g>
		<path fill="none" stroke="#EFDD10" stroke-width="2" stroke-linecap="round" stroke-miterlimit="10" d="M159.758,116.743
			c-0.129,1.831-0.273,3.661-0.435,5.489"/>
		<path fill="none" stroke="#EFDD10" stroke-width="2" stroke-linecap="round" stroke-miterlimit="10" d="M160.359,110.688
			c0.646-5.801,1.264-11.605,1.855-17.412"/>
		<path fill="none" stroke="#EFDD10" stroke-width="2" stroke-linecap="round" stroke-miterlimit="10" d="M162.727,88.195
			c0.289-2.904,0.572-5.809,0.85-8.714"/>
		<path fill="none" stroke="#EFDD10" stroke-width="2" stroke-linecap="round" stroke-miterlimit="10" d="M130.564,118.765
			c-3.235-4.857-6.493-9.702-9.771-14.529"/>
		<path fill="none" stroke="#EFDD10" stroke-width="2" stroke-linecap="round" stroke-miterlimit="10" d="M117.918,100.014
			c-1.645-2.411-3.296-4.818-4.952-7.221"/>
		<path fill="none" stroke="#EFDD10" stroke-width="2" stroke-linecap="round" stroke-miterlimit="10" d="M112.93,144.105
			c-5.602-1.643-11.21-3.259-16.824-4.851"/>
		<path fill="none" stroke="#EFDD10" stroke-width="2" stroke-linecap="round" stroke-miterlimit="10" d="M91.189,137.867
			c-2.81-0.787-5.621-1.569-8.435-2.347"/>
		<path fill="none" stroke="#EFDD10" stroke-width="2" stroke-linecap="round" stroke-miterlimit="10" d="M115.709,174.853
			c-5.346,2.342-10.681,4.708-16.006,7.098"/>
		<path fill="none" stroke="#EFDD10" stroke-width="2" stroke-linecap="round" stroke-miterlimit="10" d="M95.047,184.048
			c-2.66,1.203-5.316,2.411-7.971,3.625"/>
		<path fill="none" stroke="#EFDD10" stroke-width="2" stroke-linecap="round" stroke-miterlimit="10" d="M137.603,196.618
			c-2.589,5.231-5.155,10.474-7.698,15.727"/>
		<path fill="none" stroke="#EFDD10" stroke-width="2" stroke-linecap="round" stroke-miterlimit="10" d="M127.686,216.945
			c-1.265,2.63-2.523,5.263-3.776,7.898"/>
		<path fill="none" stroke="#EFDD10" stroke-width="2" stroke-linecap="round" stroke-miterlimit="10" d="M166.859,193.323
			c-0.492-1.72-0.969-3.444-1.432-5.173"/>
		<path fill="none" stroke="#EFDD10" stroke-width="2" stroke-linecap="round" stroke-miterlimit="10" d="M168.365,199.221
			c1.379,5.671,2.783,11.336,4.211,16.996"/>
		<path fill="none" stroke="#EFDD10" stroke-width="2" stroke-linecap="round" stroke-miterlimit="10" d="M173.834,221.166
			c0.723,2.827,1.451,5.653,2.186,8.479"/>
		<path fill="none" stroke="#EFDD10" stroke-width="2" stroke-linecap="round" stroke-miterlimit="10" d="M199.02,185.409
			c2.906,2.122,5.818,4.235,8.734,6.341"/>
		<path fill="none" stroke="#EFDD10" stroke-width="2" stroke-linecap="round" stroke-miterlimit="10" d="M193.604,181.438
			c0.578,0.428,1.158,0.853,1.738,1.279"/>
		<path fill="none" stroke="#EFDD10" stroke-width="2" stroke-linecap="round" stroke-miterlimit="10" d="M211.898,194.735
			c2.371,1.703,4.746,3.398,7.125,5.09"/>
		<path fill="none" stroke="#EFDD10" stroke-width="2" stroke-linecap="round" stroke-miterlimit="10" d="M195.439,152.054
			c-1.788,0.188-3.578,0.359-5.369,0.515"/>
		<path fill="none" stroke="#EFDD10" stroke-width="2" stroke-linecap="round" stroke-miterlimit="10" d="M204.176,151.423
			c4.934-0.323,9.867-0.664,14.799-1.023"/>
		<path fill="none" stroke="#EFDD10" stroke-width="2" stroke-linecap="round" stroke-miterlimit="10" d="M224.068,150.02
			c2.91-0.219,5.82-0.445,8.73-0.678"/>
		<path fill="none" stroke="#EFDD10" stroke-width="2" stroke-linecap="round" stroke-miterlimit="10" d="M188.379,123.654
			c4.223-4.031,8.426-8.079,12.611-12.146"/>
		<path fill="none" stroke="#EFDD10" stroke-width="2" stroke-linecap="round" stroke-miterlimit="10" d="M204.648,107.945
			c2.09-2.04,4.174-4.083,6.252-6.131"/>
		<path fill="none" stroke="#EFDD10" stroke-width="2" stroke-linecap="round" stroke-miterlimit="10" d="M151.943,103.304
			c0.387,4.383,0.772,8.766,1.159,13.149"/>
		<path fill="none" stroke="#EFDD10" stroke-width="2" stroke-linecap="round" stroke-miterlimit="10" d="M150.795,90.293
			c0.261,2.952,0.521,5.903,0.781,8.855"/>
		<path fill="none" stroke="#EFDD10" stroke-width="2" stroke-linecap="round" stroke-miterlimit="10" d="M119.369,118.52
			c1.611,1.608,3.222,3.217,4.833,4.826"/>
		<path fill="none" stroke="#EFDD10" stroke-width="2" stroke-linecap="round" stroke-miterlimit="10" d="M110.127,109.29
			c2.095,2.094,4.193,4.187,6.289,6.281"/>
		<path fill="none" stroke="#EFDD10" stroke-width="2" stroke-linecap="round" stroke-miterlimit="10" d="M104.197,151.113
			c4.507,0.392,9.014,0.783,13.52,1.174"/>
		<path fill="none" stroke="#EFDD10" stroke-width="2" stroke-linecap="round" stroke-miterlimit="10" d="M91.183,149.983
			c2.952,0.257,5.904,0.513,8.856,0.77"/>
		<path fill="none" stroke="#EFDD10" stroke-width="2" stroke-linecap="round" stroke-miterlimit="10" d="M113.524,185.834
			c1.853-1.298,3.705-2.597,5.556-3.896"/>
		<path fill="none" stroke="#EFDD10" stroke-width="2" stroke-linecap="round" stroke-miterlimit="10" d="M102.83,193.333
			c2.427-1.701,4.852-3.402,7.279-5.103"/>
		<path fill="none" stroke="#EFDD10" stroke-width="2" stroke-linecap="round" stroke-miterlimit="10" d="M145.929,195.432
			c0.291-1.093,0.583-2.185,0.875-3.277"/>
		<path fill="none" stroke="#EFDD10" stroke-width="2" stroke-linecap="round" stroke-miterlimit="10" d="M142.988,206.436
			c0.438-1.638,0.877-3.276,1.314-4.916"/>
		<path fill="none" stroke="#EFDD10" stroke-width="2" stroke-linecap="round" stroke-miterlimit="10" d="M139.617,219.055
			c0.765-2.862,1.529-5.726,2.294-8.587"/>
		<path fill="none" stroke="#EFDD10" stroke-width="2" stroke-linecap="round" stroke-miterlimit="10" d="M178.803,203.279
			c-2.154-4.611-4.309-9.222-6.463-13.833"/>
		<path fill="none" stroke="#EFDD10" stroke-width="2" stroke-linecap="round" stroke-miterlimit="10" d="M184.33,215.113
			c-1.254-2.685-2.51-5.369-3.764-8.053"/>
		<path fill="none" stroke="#EFDD10" stroke-width="2" stroke-linecap="round" stroke-miterlimit="10" d="M204.207,177.84
			c-1.758-0.817-3.516-1.636-5.273-2.454"/>
		<path fill="none" stroke="#EFDD10" stroke-width="2" stroke-linecap="round" stroke-miterlimit="10" d="M216.049,183.353
			c-2.686-1.251-5.373-2.499-8.061-3.751"/>
		<path fill="none" stroke="#EFDD10" stroke-width="2" stroke-linecap="round" stroke-miterlimit="10" d="M199.592,144.099
			c-3.065,0.823-6.13,1.646-9.195,2.47"/>
		<path fill="none" stroke="#EFDD10" stroke-width="2" stroke-linecap="round" stroke-miterlimit="10" d="M207.316,142.023
			c-1.17,0.313-2.34,0.629-3.51,0.942"/>
		<path fill="none" stroke="#EFDD10" stroke-width="2" stroke-linecap="round" stroke-miterlimit="10" d="M219.93,138.634
			c-2.861,0.769-5.721,1.538-8.584,2.306"/>
		<path fill="none" stroke="#EFDD10" stroke-width="2" stroke-linecap="round" stroke-miterlimit="10" d="M186.676,112.586
			c-1.805,2.582-3.609,5.165-5.416,7.747"/>
		<path fill="none" stroke="#EFDD10" stroke-width="2" stroke-linecap="round" stroke-miterlimit="10" d="M194.16,101.883
			c-1.697,2.427-3.395,4.855-5.094,7.284"/>
		<path fill="none" stroke="#EFDD10" stroke-width="2" stroke-linecap="round" stroke-miterlimit="10" d="M145.688,115.201
			c0.463,1.723,0.926,3.446,1.389,5.168"/>
		<path fill="none" stroke="#EFDD10" stroke-width="2" stroke-linecap="round" stroke-miterlimit="10" d="M139.159,90.894
			c1.695,6.308,3.389,12.613,5.083,18.921"/>
		<path fill="none" stroke="#EFDD10" stroke-width="2" stroke-linecap="round" stroke-miterlimit="10" d="M134.962,75.275
			c0.983,3.662,1.968,7.325,2.951,10.986"/>
		<path fill="none" stroke="#EFDD10" stroke-width="2" stroke-linecap="round" stroke-miterlimit="10" d="M101.598,117.23
			c5.353,3.742,10.704,7.484,16.056,11.227"/>
		<path fill="none" stroke="#EFDD10" stroke-width="2" stroke-linecap="round" stroke-miterlimit="10" d="M89.734,108.935
			c2.645,1.849,5.289,3.697,7.933,5.547"/>
		<path fill="none" stroke="#EFDD10" stroke-width="2" stroke-linecap="round" stroke-miterlimit="10" d="M114.828,159.339
			c1.848-0.164,3.695-0.325,5.543-0.489"/>
		<path fill="none" stroke="#EFDD10" stroke-width="2" stroke-linecap="round" stroke-miterlimit="10" d="M89.755,161.549
			c6.505-0.574,13.01-1.146,19.515-1.721"/>
		<path fill="none" stroke="#EFDD10" stroke-width="2" stroke-linecap="round" stroke-miterlimit="10" d="M76.538,162.714
			c2.813-0.248,5.626-0.496,8.438-0.744"/>
		<path fill="none" stroke="#EFDD10" stroke-width="2" stroke-linecap="round" stroke-miterlimit="10" d="M126.955,185.303
			c1.418-1.42,2.836-2.841,4.254-4.261"/>
		<path fill="none" stroke="#EFDD10" stroke-width="2" stroke-linecap="round" stroke-miterlimit="10" d="M109.169,203.111
			c4.614-4.621,9.229-9.241,13.844-13.862"/>
		<path fill="none" stroke="#EFDD10" stroke-width="2" stroke-linecap="round" stroke-miterlimit="10" d="M100.135,212.156
			c1.881-1.884,3.762-3.767,5.644-5.651"/>
		<path fill="none" stroke="#EFDD10" stroke-width="2" stroke-linecap="round" stroke-miterlimit="10" d="M152.935,197.395
			c0.271-3.134,0.544-6.267,0.814-9.4"/>
		<path fill="none" stroke="#EFDD10" stroke-width="2" stroke-linecap="round" stroke-miterlimit="10" d="M150.756,222.47
			c0.468-5.38,0.936-10.763,1.402-16.143"/>
		<path fill="none" stroke="#EFDD10" stroke-width="2" stroke-linecap="round" stroke-miterlimit="10" d="M149.693,234.725
			c0.216-2.492,0.433-4.983,0.65-7.475"/>
		<path fill="none" stroke="#EFDD10" stroke-width="2" stroke-linecap="round" stroke-miterlimit="10" d="M195.059,210.567
			c-3.75-5.346-7.498-10.693-11.246-16.04"/>
		<path fill="none" stroke="#EFDD10" stroke-width="2" stroke-linecap="round" stroke-miterlimit="10" d="M202.955,221.829
			c-1.715-2.444-3.428-4.889-5.141-7.333"/>
		<path fill="none" stroke="#EFDD10" stroke-width="2" stroke-linecap="round" stroke-miterlimit="10" d="M197.031,166.476
			c-1.724-0.46-3.447-0.921-5.171-1.382"/>
		<path fill="none" stroke="#EFDD10" stroke-width="2" stroke-linecap="round" stroke-miterlimit="10" d="M221.346,172.974
			c-6.309-1.685-12.617-3.372-18.926-5.058"/>
		<path fill="none" stroke="#EFDD10" stroke-width="2" stroke-linecap="round" stroke-miterlimit="10" d="M233.463,176.212
			c-2.494-0.666-4.988-1.332-7.482-2"/>
		<path fill="none" stroke="#EFDD10" stroke-width="2" stroke-linecap="round" stroke-miterlimit="10" d="M217.318,127.277
			c-4.676,2.185-9.352,4.368-14.025,6.552"/>
		<path fill="none" stroke="#EFDD10" stroke-width="2" stroke-linecap="round" stroke-miterlimit="10" d="M228.242,122.176
			c-2.191,1.024-4.385,2.048-6.578,3.071"/>
		<path fill="none" stroke="#EFDD10" stroke-width="2" stroke-linecap="round" stroke-miterlimit="10" d="M174.236,117.68
			c-0.753,1.617-1.506,3.234-2.259,4.852"/>
		<path fill="none" stroke="#EFDD10" stroke-width="2" stroke-linecap="round" stroke-miterlimit="10" d="M184.859,94.861
			c-2.756,5.922-5.512,11.842-8.268,17.763"/>
		<path fill="none" stroke="#EFDD10" stroke-width="2" stroke-linecap="round" stroke-miterlimit="10" d="M190.051,83.712
			c-1.055,2.267-2.111,4.534-3.166,6.802"/>
		<path fill="none" stroke="#EFDD10" stroke-width="2" stroke-linecap="round" stroke-miterlimit="10" d="M139.397,118.923
			c-1.229-2.631-2.458-5.264-3.687-7.896"/>
		<path fill="none" stroke="#EFDD10" stroke-width="2" stroke-linecap="round" stroke-miterlimit="10" d="M132.651,104.423
			c-1.523-3.271-3.047-6.544-4.568-9.816"/>
		<path fill="none" stroke="#EFDD10" stroke-width="2" stroke-linecap="round" stroke-miterlimit="10" d="M117.604,137.527
			c-1.902-0.886-3.804-1.771-5.704-2.657"/>
		<path fill="none" stroke="#EFDD10" stroke-width="2" stroke-linecap="round" stroke-miterlimit="10" d="M105.311,131.776
			c-3.272-1.525-6.542-3.053-9.811-4.583"/>
		<path fill="none" stroke="#EFDD10" stroke-width="2" stroke-linecap="round" stroke-miterlimit="10" d="M119.27,165.678
			c-3.429,0.922-6.856,1.843-10.286,2.762"/>
		<path fill="none" stroke="#EFDD10" stroke-width="2" stroke-linecap="round" stroke-miterlimit="10" d="M101.948,170.307
			c-3.486,0.932-6.973,1.864-10.461,2.793"/>
		<path fill="none" stroke="#EFDD10" stroke-width="2" stroke-linecap="round" stroke-miterlimit="10" d="M133.602,188.493
			c-1.757,2.513-3.514,5.025-5.272,7.537"/>
		<path fill="none" stroke="#EFDD10" stroke-width="2" stroke-linecap="round" stroke-miterlimit="10" d="M124.138,201.982
			c-2.07,2.955-4.144,5.91-6.216,8.864"/>
		<path fill="none" stroke="#EFDD10" stroke-width="2" stroke-linecap="round" stroke-miterlimit="10" d="M159.777,192.192
			c0.371,4.179,0.74,8.358,1.105,12.538"/>
		<path fill="none" stroke="#EFDD10" stroke-width="2" stroke-linecap="round" stroke-miterlimit="10" d="M161.5,211.984
			c0.313,3.594,0.625,7.19,0.934,10.786"/>
		<path fill="none" stroke="#EFDD10" stroke-width="2" stroke-linecap="round" stroke-miterlimit="10" d="M188.502,187.562
			c0.971,0.969,1.941,1.938,2.91,2.908"/>
		<path fill="none" stroke="#EFDD10" stroke-width="2" stroke-linecap="round" stroke-miterlimit="10" d="M196.547,195.63
			c2.551,2.553,5.102,5.107,7.648,7.661"/>
		<path fill="none" stroke="#EFDD10" stroke-width="2" stroke-linecap="round" stroke-miterlimit="10" d="M197.676,159.229
			c2.654,0.23,5.307,0.461,7.957,0.692"/>
		<path fill="none" stroke="#EFDD10" stroke-width="2" stroke-linecap="round" stroke-miterlimit="10" d="M212.885,160.575
			c3.594,0.314,7.189,0.633,10.783,0.951"/>
		<path fill="none" stroke="#EFDD10" stroke-width="2" stroke-linecap="round" stroke-miterlimit="10" d="M196.893,127.38
			c-0.531,0.369-1.059,0.74-1.588,1.109"/>
		<path fill="none" stroke="#EFDD10" stroke-width="2" stroke-linecap="round" stroke-miterlimit="10" d="M202.865,123.22
			c2.957-2.07,5.916-4.138,8.873-6.204"/>
		<path fill="none" stroke="#EFDD10" stroke-width="2" stroke-linecap="round" stroke-miterlimit="10" d="M166.455,118.625
			c0.939-3.519,1.88-7.037,2.822-10.555"/>
		<path fill="none" stroke="#EFDD10" stroke-width="2" stroke-linecap="round" stroke-miterlimit="10" d="M171.178,101.043
			c0.936-3.486,1.873-6.971,2.811-10.455"/>
		
			<line fill="none" stroke="#EFDD10" stroke-width="2" stroke-linecap="round" stroke-miterlimit="10" x1="195.305" y1="128.489" x2="191.979" y2="130.948"/>
	</g>
	
		<line fill="none" stroke="#F5EB23" stroke-width="2" stroke-linecap="round" stroke-miterlimit="10" x1="203.293" y1="133.829" x2="196.098" y2="136.99"/>
	
		<line fill="none" stroke="#F5EB23" stroke-width="2" stroke-linecap="round" stroke-miterlimit="10" x1="203.807" y1="142.966" x2="199.592" y2="144.099"/>
</g>
<g id="Layer_5">
	<g>
		<g>
			<rect x="106.298" y="130.596" fill="none" width="97.574" height="87.231"/>
			<path fill="#FFFFFF" d="M136.61,141.432h-2.45l-1.253-5.02c-0.019-0.069-0.041-0.167-0.066-0.292
				c-0.025-0.126-0.055-0.267-0.087-0.425c-0.033-0.158-0.065-0.322-0.098-0.494s-0.063-0.339-0.091-0.502
				c-0.027-0.162-0.052-0.312-0.073-0.448c-0.021-0.137-0.035-0.247-0.045-0.331c-0.01,0.084-0.024,0.194-0.045,0.331
				c-0.021,0.137-0.046,0.285-0.073,0.445c-0.028,0.16-0.057,0.326-0.087,0.498s-0.061,0.336-0.091,0.494
				c-0.03,0.157-0.06,0.302-0.087,0.432c-0.028,0.13-0.051,0.231-0.069,0.306l-1.239,5.006h-2.458l-2.45-10.178h2.123l1.156,5.556
				c0.014,0.074,0.033,0.182,0.059,0.323s0.055,0.301,0.087,0.477c0.033,0.177,0.066,0.362,0.102,0.558
				c0.034,0.194,0.068,0.385,0.101,0.57s0.063,0.358,0.091,0.519c0.027,0.16,0.049,0.292,0.063,0.394
				c0.014-0.102,0.033-0.232,0.06-0.39c0.025-0.158,0.052-0.326,0.079-0.505c0.028-0.179,0.06-0.363,0.095-0.554
				c0.034-0.19,0.065-0.367,0.094-0.532c0.027-0.165,0.055-0.311,0.08-0.438s0.045-0.22,0.06-0.275l1.413-5.701h1.894l1.413,5.701
				c0.014,0.056,0.033,0.147,0.059,0.275s0.054,0.273,0.084,0.438s0.062,0.342,0.094,0.532s0.063,0.375,0.094,0.554
				s0.059,0.347,0.084,0.505c0.025,0.157,0.045,0.288,0.06,0.39c0.014-0.102,0.033-0.233,0.059-0.394s0.055-0.333,0.087-0.519
				s0.066-0.376,0.102-0.57c0.034-0.195,0.068-0.381,0.101-0.558c0.032-0.176,0.062-0.335,0.087-0.477s0.045-0.249,0.06-0.323
				l1.155-5.556h2.123L136.61,141.432z"/>
			<path fill="#FFFFFF" d="M145.851,141.432h-1.506v-3.075h-2.422v3.075h-1.511v-7.125h1.511v2.793h2.422v-2.793h1.506V141.432z"/>
			<path fill="#FFFFFF" d="M152.033,141.432l-0.487-1.696h-2.456l-0.492,1.696h-1.525l2.314-7.154h1.848l2.324,7.154H152.033z
				 M151.195,138.469l-0.458-1.56c-0.02-0.059-0.049-0.154-0.088-0.287c-0.039-0.134-0.081-0.28-0.124-0.441
				c-0.044-0.161-0.086-0.322-0.125-0.484c-0.039-0.163-0.066-0.301-0.083-0.415c-0.013,0.072-0.029,0.156-0.051,0.254
				s-0.046,0.2-0.073,0.31c-0.027,0.108-0.056,0.219-0.085,0.329s-0.057,0.214-0.083,0.312s-0.05,0.184-0.07,0.259
				c-0.021,0.074-0.037,0.13-0.047,0.165l-0.453,1.56H151.195z"/>
			<path fill="#FFFFFF" d="M156.771,141.432h-1.505v-5.867h-1.788v-1.258h5.077v1.258h-1.783V141.432z"/>
			<path fill="#FFFFFF" d="M161.881,131.254l0.104,0.153c-0.064,0.255-0.143,0.522-0.232,0.804
				c-0.092,0.281-0.191,0.566-0.301,0.856c-0.107,0.29-0.223,0.576-0.34,0.859c-0.119,0.283-0.236,0.555-0.352,0.814h-1.525
				c0.064-0.278,0.131-0.57,0.199-0.877c0.066-0.307,0.133-0.612,0.195-0.919s0.119-0.604,0.17-0.891
				c0.051-0.288,0.096-0.555,0.133-0.801H161.881z"/>
			<path fill="#FFFFFF" d="M167.395,139.454c0,0.318-0.055,0.605-0.164,0.86c-0.107,0.255-0.268,0.473-0.477,0.652
				c-0.211,0.181-0.467,0.319-0.77,0.417c-0.305,0.098-0.652,0.146-1.047,0.146c-0.344,0-0.676-0.036-0.996-0.107
				s-0.615-0.179-0.889-0.321v-1.403c0.156,0.074,0.313,0.146,0.473,0.217c0.158,0.069,0.32,0.132,0.484,0.188
				c0.164,0.055,0.328,0.099,0.492,0.131c0.164,0.033,0.328,0.049,0.49,0.049c0.166,0,0.307-0.019,0.426-0.056
				s0.215-0.09,0.287-0.156c0.074-0.066,0.127-0.146,0.162-0.238c0.033-0.093,0.051-0.194,0.051-0.305
				c0-0.134-0.029-0.251-0.086-0.354s-0.137-0.198-0.238-0.287c-0.102-0.09-0.227-0.177-0.371-0.261
				c-0.145-0.085-0.305-0.174-0.484-0.269c-0.148-0.078-0.316-0.172-0.502-0.282s-0.359-0.248-0.523-0.412s-0.301-0.362-0.412-0.595
				c-0.111-0.231-0.166-0.511-0.166-0.835c0-0.318,0.053-0.604,0.158-0.855s0.256-0.465,0.451-0.639s0.432-0.306,0.709-0.397
				c0.277-0.091,0.59-0.136,0.934-0.136c0.172,0,0.34,0.011,0.504,0.034c0.164,0.022,0.326,0.055,0.488,0.097
				c0.16,0.043,0.322,0.095,0.484,0.156s0.33,0.134,0.502,0.215l-0.488,1.174c-0.145-0.068-0.281-0.128-0.408-0.18
				c-0.127-0.053-0.25-0.096-0.371-0.132c-0.119-0.036-0.238-0.063-0.354-0.08c-0.115-0.019-0.23-0.027-0.348-0.027
				c-0.254,0-0.447,0.067-0.582,0.202s-0.203,0.314-0.203,0.539c0,0.12,0.021,0.227,0.061,0.318c0.041,0.093,0.105,0.18,0.195,0.261
				c0.09,0.082,0.205,0.164,0.346,0.249c0.143,0.084,0.313,0.181,0.516,0.287c0.242,0.13,0.467,0.263,0.672,0.397
				s0.381,0.284,0.529,0.448c0.146,0.164,0.262,0.351,0.344,0.558C167.354,138.93,167.395,139.174,167.395,139.454z"/>
			<path fill="#FFFFFF" d="M175.863,141.432h-3.24v-0.857l0.867-0.399v-4.61l-0.867-0.399v-0.858h3.24v0.858l-0.867,0.399v4.61
				l0.867,0.399V141.432z"/>
			<path fill="#FFFFFF" d="M183.42,141.432h-1.916l-2.801-5.39h-0.045c0.02,0.25,0.035,0.499,0.049,0.745
				c0.014,0.212,0.023,0.434,0.031,0.666c0.008,0.231,0.012,0.44,0.012,0.626v3.353h-1.35v-7.125h1.906l2.797,5.337h0.029
				c-0.01-0.247-0.021-0.491-0.033-0.731c-0.004-0.104-0.008-0.21-0.014-0.319c-0.004-0.108-0.008-0.218-0.012-0.326
				c-0.004-0.109-0.006-0.214-0.008-0.314c0-0.101-0.002-0.191-0.002-0.272v-3.373h1.355V141.432z"/>
			<path fill="#FFFFFF" d="M150.808,158.541l-2.234-7.986h-0.063c0.027,0.428,0.051,0.841,0.069,1.239
				c0.01,0.172,0.018,0.349,0.024,0.529s0.014,0.359,0.021,0.536c0.007,0.177,0.011,0.346,0.014,0.508
				c0.002,0.163,0.003,0.309,0.003,0.438v4.735h-1.928v-10.178h2.938l2.2,7.784h0.041l2.34-7.784h2.938v10.178h-2.012v-4.818
				c0-0.121,0.001-0.258,0.003-0.411c0.003-0.153,0.006-0.315,0.011-0.487c0.005-0.171,0.011-0.346,0.018-0.521
				c0.007-0.177,0.013-0.349,0.018-0.516c0.019-0.39,0.034-0.796,0.049-1.218h-0.056l-2.409,7.971H150.808z"/>
			<path fill="#FFFFFF" d="M161.822,154.349l1.287-2.934h1.627l-2.162,4.353v2.773h-1.502v-2.724l-2.164-4.401h1.639
				L161.822,154.349z"/>
			<path fill="#FFFFFF" d="M135.292,175.65h-2.123v-10.178h5.834v1.768h-3.711v2.625h3.453v1.762h-3.453V175.65z"/>
			<path fill="#FFFFFF" d="M142.576,172.916v2.734h-1.511v-7.125h1.949c0.913,0,1.587,0.176,2.022,0.529
				c0.436,0.352,0.653,0.887,0.653,1.605c0,0.244-0.032,0.465-0.098,0.662c-0.065,0.199-0.152,0.375-0.261,0.529
				s-0.233,0.289-0.375,0.404s-0.29,0.211-0.446,0.289c0.36,0.578,0.684,1.096,0.97,1.551c0.124,0.195,0.243,0.385,0.358,0.57
				s0.219,0.35,0.31,0.496s0.166,0.264,0.224,0.352l0.083,0.137h-1.676l-1.545-2.734H142.576z M142.576,171.688h0.409
				c0.419,0,0.72-0.084,0.901-0.25c0.183-0.168,0.273-0.414,0.273-0.738c0-0.338-0.098-0.578-0.292-0.723
				c-0.195-0.143-0.497-0.213-0.907-0.213h-0.385V171.688z"/>
			<path fill="#FFFFFF" d="M150.336,175.65h-3.241v-0.857l0.868-0.4v-4.609l-0.868-0.4v-0.857h3.241v0.857l-0.867,0.4v4.609
				l0.867,0.4V175.65z"/>
			<path fill="#FFFFFF" d="M157.385,172.02c0,0.602-0.082,1.129-0.246,1.582s-0.4,0.83-0.711,1.135
				c-0.311,0.303-0.691,0.531-1.14,0.684c-0.45,0.154-0.963,0.23-1.538,0.23h-1.876v-7.125h2.086c0.523,0,0.995,0.074,1.416,0.225
				c0.42,0.148,0.781,0.371,1.08,0.664c0.299,0.295,0.527,0.66,0.689,1.094C157.305,170.943,157.385,171.447,157.385,172.02z
				 M155.855,172.059c0-0.396-0.04-0.738-0.119-1.025c-0.08-0.289-0.195-0.525-0.346-0.715c-0.151-0.188-0.337-0.328-0.556-0.418
				c-0.22-0.092-0.471-0.137-0.753-0.137h-0.697v4.639h0.556c0.637,0,1.115-0.195,1.436-0.584
				C155.695,173.428,155.855,172.842,155.855,172.059z"/>
			<path fill="#FFFFFF" d="M161.887,171.648h2.826v3.695c-0.189,0.061-0.379,0.117-0.57,0.168c-0.191,0.049-0.391,0.092-0.598,0.127
				c-0.205,0.033-0.422,0.061-0.648,0.08c-0.225,0.02-0.465,0.029-0.719,0.029c-0.533,0-1.004-0.08-1.416-0.236
				c-0.41-0.158-0.756-0.393-1.037-0.703c-0.281-0.309-0.494-0.693-0.641-1.148c-0.146-0.457-0.219-0.984-0.219-1.582
				c0-0.559,0.08-1.064,0.242-1.516c0.164-0.451,0.402-0.836,0.719-1.152c0.318-0.316,0.707-0.561,1.17-0.73
				c0.463-0.172,0.994-0.256,1.592-0.256c0.381,0,0.752,0.039,1.115,0.121c0.365,0.082,0.697,0.188,1,0.316l-0.502,1.209
				c-0.221-0.111-0.471-0.203-0.748-0.277c-0.277-0.076-0.57-0.113-0.875-0.113c-0.332,0-0.629,0.059-0.895,0.174
				s-0.492,0.279-0.68,0.49s-0.334,0.465-0.434,0.764c-0.102,0.299-0.15,0.633-0.15,1c0,0.35,0.033,0.672,0.104,0.963
				c0.07,0.289,0.18,0.541,0.33,0.752c0.148,0.211,0.342,0.375,0.576,0.492c0.236,0.117,0.518,0.176,0.846,0.176
				c0.215,0,0.396-0.01,0.543-0.029c0.148-0.02,0.287-0.043,0.418-0.068v-1.486h-1.35V171.648z"/>
			<path fill="#FFFFFF" d="M170.83,175.65h-4.104v-7.125h4.104v1.238h-2.592v1.564h2.412v1.236h-2.412v1.838h2.592V175.65z"/>
			<path fill="#FFFFFF" d="M173.578,172.273v-0.516c0-0.236,0.023-0.451,0.072-0.643c0.049-0.193,0.123-0.377,0.223-0.551
				s0.229-0.344,0.387-0.508c0.158-0.166,0.348-0.336,0.57-0.512c0.195-0.154,0.359-0.291,0.494-0.412
				c0.135-0.119,0.244-0.238,0.328-0.357s0.145-0.242,0.182-0.373c0.037-0.129,0.055-0.281,0.055-0.451
				c0-0.266-0.09-0.484-0.268-0.654c-0.18-0.172-0.451-0.258-0.818-0.258c-0.32,0-0.664,0.066-1.033,0.201s-0.752,0.299-1.146,0.494
				l-0.709-1.539c0.199-0.115,0.416-0.227,0.65-0.33s0.479-0.197,0.73-0.279c0.254-0.08,0.51-0.145,0.77-0.191
				c0.26-0.045,0.516-0.068,0.766-0.068c0.475,0,0.9,0.057,1.281,0.17s0.703,0.279,0.969,0.498c0.264,0.219,0.467,0.482,0.609,0.793
				c0.141,0.313,0.211,0.666,0.211,1.066c0,0.291-0.031,0.553-0.098,0.783c-0.064,0.229-0.16,0.443-0.289,0.641
				c-0.127,0.197-0.287,0.387-0.48,0.57c-0.191,0.184-0.416,0.377-0.672,0.58c-0.193,0.154-0.354,0.287-0.477,0.4
				c-0.123,0.115-0.219,0.223-0.289,0.324c-0.068,0.102-0.117,0.209-0.143,0.316c-0.025,0.109-0.037,0.238-0.037,0.387v0.418
				H173.578z M173.348,174.654c0-0.219,0.031-0.402,0.094-0.553c0.063-0.152,0.15-0.273,0.262-0.365
				c0.111-0.094,0.242-0.16,0.393-0.203c0.15-0.041,0.313-0.063,0.484-0.063c0.162,0,0.316,0.021,0.463,0.063
				c0.146,0.043,0.275,0.109,0.387,0.203c0.111,0.092,0.199,0.213,0.264,0.365c0.066,0.15,0.098,0.334,0.098,0.553
				c0,0.209-0.031,0.387-0.098,0.537c-0.064,0.148-0.152,0.271-0.264,0.367c-0.111,0.098-0.24,0.17-0.387,0.213
				c-0.146,0.045-0.301,0.066-0.463,0.066c-0.172,0-0.334-0.021-0.484-0.066c-0.15-0.043-0.281-0.115-0.393-0.213
				c-0.111-0.096-0.199-0.219-0.262-0.367C173.379,175.041,173.348,174.863,173.348,174.654z"/>
		</g>
		<g>
			<path fill="#FFFFFF" d="M182.895,175.723h-1.238v-4.549h1.238v0.537h-0.574v3.475h0.574V175.723z"/>
			<path fill="#FFFFFF" d="M183.49,174.533c0-0.08,0.012-0.146,0.035-0.201c0.023-0.057,0.055-0.1,0.096-0.135
				c0.041-0.033,0.09-0.059,0.145-0.074c0.053-0.016,0.113-0.021,0.176-0.021c0.059,0,0.115,0.006,0.17,0.021
				c0.053,0.016,0.102,0.041,0.143,0.074c0.041,0.035,0.072,0.078,0.096,0.135c0.025,0.055,0.037,0.121,0.037,0.201
				c0,0.076-0.012,0.143-0.037,0.197c-0.023,0.055-0.055,0.1-0.096,0.135s-0.09,0.061-0.143,0.078
				c-0.055,0.016-0.111,0.023-0.17,0.023c-0.063,0-0.123-0.008-0.176-0.023c-0.055-0.018-0.104-0.043-0.145-0.078
				s-0.072-0.08-0.096-0.135S183.49,174.609,183.49,174.533z"/>
			<path fill="#FFFFFF" d="M186.295,172.715c-0.107,0-0.201,0.02-0.283,0.061s-0.15,0.1-0.205,0.176
				c-0.057,0.078-0.098,0.17-0.127,0.281c-0.027,0.109-0.043,0.232-0.043,0.369c0,0.139,0.014,0.264,0.039,0.371
				s0.064,0.199,0.117,0.273c0.055,0.074,0.121,0.131,0.205,0.17c0.082,0.039,0.182,0.057,0.297,0.057
				c0.105,0,0.211-0.012,0.318-0.035s0.223-0.057,0.348-0.102v0.465c-0.057,0.023-0.113,0.043-0.17,0.061
				c-0.055,0.016-0.113,0.029-0.172,0.041c-0.059,0.01-0.117,0.018-0.18,0.023c-0.061,0.006-0.127,0.008-0.197,0.008
				c-0.201,0-0.377-0.031-0.525-0.096c-0.146-0.064-0.27-0.154-0.365-0.271c-0.098-0.117-0.17-0.256-0.215-0.42
				c-0.047-0.164-0.07-0.348-0.07-0.549c0-0.197,0.027-0.377,0.08-0.543c0.055-0.164,0.133-0.307,0.236-0.424
				c0.104-0.119,0.232-0.213,0.385-0.277c0.152-0.066,0.328-0.1,0.527-0.1c0.129,0,0.26,0.016,0.391,0.049s0.256,0.078,0.375,0.135
				l-0.18,0.449c-0.098-0.047-0.195-0.086-0.295-0.121S186.389,172.715,186.295,172.715z"/>
			<path fill="#FFFFFF" d="M189.129,174.898l-0.18-0.621h-0.902l-0.18,0.621h-0.561l0.85-2.617h0.678l0.855,2.617H189.129z
				 M188.82,173.814l-0.168-0.57c-0.008-0.021-0.018-0.057-0.033-0.105c-0.014-0.049-0.029-0.104-0.045-0.162
				s-0.031-0.117-0.045-0.178c-0.016-0.059-0.025-0.109-0.031-0.15c-0.004,0.025-0.012,0.057-0.018,0.092
				c-0.008,0.035-0.018,0.074-0.027,0.113c-0.01,0.041-0.021,0.08-0.031,0.121c-0.012,0.041-0.021,0.078-0.031,0.113
				s-0.018,0.068-0.025,0.096s-0.014,0.047-0.018,0.061l-0.166,0.57H188.82z"/>
			<path fill="#FFFFFF" d="M189.938,175.186h0.57v-3.475h-0.57v-0.537h1.236v4.549h-1.236V175.186z"/>
		</g>
	</g>
	<g>
	</g>
	<g>
	</g>
	<g>
	</g>
	<g>
	</g>
	<g>
	</g>
	<g>
	</g>
</g>
</svg>
