<?xml version="1.0" encoding="utf-8"?>
<!-- Generator: Adobe Illustrator 16.0.0, SVG Export Plug-In . SVG Version: 6.00 Build 0)  -->
<!DOCTYPE svg PUBLIC "-//W3C//DTD SVG 1.1//EN" "http://www.w3.org/Graphics/SVG/1.1/DTD/svg11.dtd">
<svg version="1.1" id="Layer_1" xmlns="http://www.w3.org/2000/svg" xmlns:xlink="http://www.w3.org/1999/xlink" x="0px" y="0px"
	 width="350px" height="350px" viewBox="0 0 350 350" enable-background="new 0 0 350 350" xml:space="preserve">
<g id="Layer_1_1_" display="none">
	<g display="inline">
	</g>
</g>
<g id="Layer_2">
	<circle fill="#3D7CB3" cx="176" cy="175.021" r="158.666"/>
</g>
<path fill="#FFFFFF" d="M131,153.74l-1.667,10.5c0,0,15.667-7.5,25,0c0,0,6.333,5.167,0,23.833l-11.093,41.333
	c0,0-6.574,20.998,2.093,30.333c0,0,4.333,11.666,25,13c0,0,16,2.333,39.667-10l2.667-11.333c0,0-21.333,7.998-28.667-0.668
	c0,0-4.666-10,3.667-32.332l9.666-37.333c0,0,5-21.333-4.333-27.333c0,0-4.666-10.667-26-10C167,143.74,155.667,142.073,131,153.74z
	"/>
<circle fill="#FFFFFF" cx="189.834" cy="99.573" r="23.167"/>
</svg>
