<?xml version="1.0" encoding="utf-8"?>
<!-- Generator: Adobe Illustrator 16.0.0, SVG Export Plug-In . SVG Version: 6.00 Build 0)  -->
<!DOCTYPE svg PUBLIC "-//W3C//DTD SVG 1.1//EN" "http://www.w3.org/Graphics/SVG/1.1/DTD/svg11.dtd">
<svg version="1.1" xmlns="http://www.w3.org/2000/svg" xmlns:xlink="http://www.w3.org/1999/xlink" x="0px" y="0px" width="350px"
	 height="350px" viewBox="0 0 350 350" enable-background="new 0 0 350 350" xml:space="preserve">
<g id="Layer_1" display="none">
	
		<image display="inline" overflow="visible" width="350" height="350" xlink:href="2B329138.jpg"  transform="matrix(0.9714 0 0 0.9714 5 5)">
	</image>
</g>
<g id="Layer_2">
	<circle fill="#525354" cx="175.5" cy="175.5" r="170.5"/>
</g>
<g id="Layer_3">
	<path fill="#FFFFFF" d="M31.5,114v86l34,12c0,0,17-28.5,36-19.5c0,0,11.75,2,15.75,17c0,0,14.5,0.75,17.75,18.5
		c0,0,14.75,0.75,18,18.5c0,0,22.75,1.25,17,29.5l8,6.75c0,0,5.5,4.5,12.75,0c0,0,8.75-6.75,2.5-16c0,0-12-9.25-8.25-11.75
		c0,0,1.75-4,12,8.25c0,0,9,11.25,18.75,2.25c0,0,7.75-7.75-2.25-17.75l-8.25-7.75c0,0-1.75-2-0.5-4.25c0,0,1.75-3.75,7.25,3.25
		l10.5,11c0,0,10.25,9.5,17,0c0,0,6.75-6.5-1.75-16.5L225,221.25c0,0-2.75-2.75-1-5c0,0,1.75-1.5,4.25,1l18.5,18.75
		c0,0,8.75,7.75,16,0c0,0,7.25-4.75,0-16.5l-62.75-63c0,0-11,7.5-42,21.5c0,0-22.25,6-30.25-7c0,0-10.25-11.75-1.5-28.5
		c0,0,14.5-14,46.5-31.5c0,0-20.25-12.25-45.5,0c0,0-8.25,3.25-17,10.5c0,0-7,8-18.25,8.75c0,0-3.25,3.75-32.5-6.75L31.5,114z"/>
	<path fill="#FFFFFF" d="M318.667,202.729v-89.667l-44.667,17c0,0-10.334,4.667-17-1.667c0,0-14.666-12-19.666-15.333
		c0,0-19.335-14.667-42.334-3l-58.667,37c0,0-7.333,9.666,0,19.333c0,0,9.667,6.999,25.667-1.667l32-16c0,0,7-4,14,3.334
		l61.667,62.666L318.667,202.729z"/>
	<path fill="#FFFFFF" d="M85.333,204c0,0,12.333-8.333,19.667,3c0,0,4.667,7,1.667,13.333c0,0,19.667-6.333,18.667,17
		c0,0,20-3.667,18.333,18c0,0,18.667-3,17,17c0,0-2.333,11.667-14.667,16c0,0-22,1.334-17.667-18.333c0,0-19.333,3.666-18-17.667
		c0,0-21.667,2-18-18c0,0-22,3.126-17.333-19.604C75,214.729,77.109,206.892,85.333,204z"/>
	<g>
	</g>
	<g>
	</g>
	<g>
	</g>
	<g>
	</g>
	<g>
	</g>
	<g>
	</g>
</g>
</svg>
