<?xml version="1.0" encoding="utf-8"?>
<!-- Generator: Adobe Illustrator 16.0.0, SVG Export Plug-In . SVG Version: 6.00 Build 0)  -->
<!DOCTYPE svg PUBLIC "-//W3C//DTD SVG 1.1//EN" "http://www.w3.org/Graphics/SVG/1.1/DTD/svg11.dtd">
<svg version="1.1" xmlns="http://www.w3.org/2000/svg" xmlns:xlink="http://www.w3.org/1999/xlink" x="0px" y="0px" width="128px"
	 height="122px" viewBox="0 0 128 122" enable-background="new 0 0 128 122" xml:space="preserve">
<g id="Layer_2">
	<circle fill="#FFF" cx="56.308" cy="105.545" r="9.378"/>
	<path fill="#FFF" d="M117.937,30.88c0,0,5.687,0.685,5.249,5.31l-3.938,32.546c0,0-0.524,5.481-5.161,5.481H59.839
		c0,0-3.675-0.685-4.726-4.539L44.265,29.767c0,0,0-4.54,5.162-4.454L117.937,30.88z"/>
	<path fill="#FFF" d="M10.053,13.53l22.105,1.817l17.866,65.782H107.3c0,0,8.436,5.033-0.173,11.219H43.449L24.026,25.34
		L9.274,24.994C9.274,24.994,2.613,17.078,10.053,13.53z"/>
	<circle fill="#FFF" cx="97.977" cy="105.545" r="9.378"/>
</g>
<g id="Layer_3">
	<g>
		<path fill="#3E7DB4" d="M83.229,62.667c-1.288,1.287-3.376,1.287-4.665,0l-9.243-9.244c-1.289-1.288-1.289-3.376,0-4.664l0,0
			c1.287-1.288,3.376-1.288,4.665,0l9.243,9.244C84.518,59.292,84.518,61.379,83.229,62.667L83.229,62.667z"/>
		<path fill="#3E7DB4" d="M105.713,36.482c1.496,1.498,0.716,4.707-1.744,7.167L86.313,61.304c-2.461,2.462-5.668,3.241-7.164,1.743
			l0,0c-1.498-1.497-0.719-4.705,1.742-7.167l17.654-17.654C101.008,35.764,104.217,34.984,105.713,36.482L105.713,36.482z"/>
	</g>
	<g>
	</g>
	<g>
	</g>
	<g>
	</g>
	<g>
	</g>
	<g>
	</g>
	<g>
	</g>
</g>
</svg>
