<?xml version="1.0" encoding="utf-8"?>
<!-- Generator: Adobe Illustrator 16.0.0, SVG Export Plug-In . SVG Version: 6.00 Build 0)  -->
<!DOCTYPE svg PUBLIC "-//W3C//DTD SVG 1.1//EN" "http://www.w3.org/Graphics/SVG/1.1/DTD/svg11.dtd">
<svg version="1.1" xmlns="http://www.w3.org/2000/svg" xmlns:xlink="http://www.w3.org/1999/xlink" x="0px" y="0px" width="350px"
	 height="350px" viewBox="0 0 350 350" enable-background="new 0 0 350 350" xml:space="preserve">
<g id="Layer_1">
	<rect x="16.305" y="16.305" fill="#03041E" width="317.392" height="317.392"/>
</g>
<g id="Layer_3">
	<path fill="none" stroke="#F8DE0D" stroke-width="4" stroke-linecap="round" stroke-miterlimit="10" d="M182.165,93.602
		c-0.192,2.565-0.39,5.129-0.59,7.693"/>
	<path fill="none" stroke="#F8DE0D" stroke-width="4" stroke-linecap="round" stroke-miterlimit="10" d="M182.812,69.146
		c1.438-12.899,2.81-25.806,4.126-38.718"/>
	<path fill="none" stroke="#F8DE0D" stroke-width="4" stroke-linecap="round" stroke-miterlimit="10" d="M109.363,75.9
		c-4.781-7.077-9.57-14.149-14.368-21.214"/>
	<path fill="none" stroke="#F8DE0D" stroke-width="4" stroke-linecap="round" stroke-miterlimit="10" d="M88.441,45.409
		c-3.656-5.362-7.329-10.713-11.012-16.056"/>
	<path fill="none" stroke="#F8DE0D" stroke-width="4" stroke-linecap="round" stroke-miterlimit="10" d="M75.534,142.688
		c-11.852-3.39-23.708-6.762-35.568-10.118"/>
	<path fill="none" stroke="#F8DE0D" stroke-width="4" stroke-linecap="round" stroke-miterlimit="10" d="M122.917,156.343
		c-9.329-2.708-18.659-5.406-27.994-8.093"/>
	<path fill="none" stroke="#F8DE0D" stroke-width="4" stroke-linecap="round" stroke-miterlimit="10" d="M88.663,209.277
		c-13.611,6.029-27.205,12.09-40.786,18.186"/>
	<path fill="none" stroke="#F8DE0D" stroke-width="4" stroke-linecap="round" stroke-miterlimit="10" d="M122.373,194.426
		c-5.112,2.24-10.223,4.484-15.331,6.734"/>
	<path fill="none" stroke="#F8DE0D" stroke-width="4" stroke-linecap="round" stroke-miterlimit="10" d="M35.921,233.008
		c-4.605,2.083-9.208,4.172-13.808,6.266"/>
	<path fill="none" stroke="#F8DE0D" stroke-width="4" stroke-linecap="round" stroke-miterlimit="10" d="M132.211,260.217
		c-5.756,11.631-11.462,23.289-17.117,34.969"/>
	<path fill="none" stroke="#F8DE0D" stroke-width="4" stroke-linecap="round" stroke-miterlimit="10" d="M110.161,305.416
		c-2.812,5.846-5.611,11.701-8.398,17.563"/>
	<path fill="none" stroke="#F8DE0D" stroke-width="4" stroke-linecap="round" stroke-miterlimit="10" d="M200.613,266.002
		c3.066,12.611,6.188,25.207,9.362,37.793"/>
	<path fill="none" stroke="#F8DE0D" stroke-width="4" stroke-linecap="round" stroke-miterlimit="10" d="M212.773,314.801
		c1.034,4.042,2.072,8.082,3.115,12.121"/>
	<path fill="none" stroke="#F8DE0D" stroke-width="4" stroke-linecap="round" stroke-miterlimit="10" d="M268.776,235.291
		c6.461,4.721,12.936,9.42,19.421,14.102"/>
	<path fill="none" stroke="#F8DE0D" stroke-width="4" stroke-linecap="round" stroke-miterlimit="10" d="M240.024,213.76
		c6.859,5.039,13.719,10.076,20.573,15.121"/>
	<path fill="none" stroke="#F8DE0D" stroke-width="4" stroke-linecap="round" stroke-miterlimit="10" d="M297.414,256.029
		c5.271,3.789,10.553,7.557,15.842,11.318"/>
	<path fill="none" stroke="#F8DE0D" stroke-width="4" stroke-linecap="round" stroke-miterlimit="10" d="M260.081,159.661
		c-5.751,0.603-11.505,1.184-17.26,1.745"/>
	<path fill="none" stroke="#F8DE0D" stroke-width="4" stroke-linecap="round" stroke-miterlimit="10" d="M280.242,159.72
		c10.969-0.719,21.939-1.476,32.905-2.276"/>
	<path fill="none" stroke="#F8DE0D" stroke-width="4" stroke-linecap="round" stroke-miterlimit="10" d="M257.305,86.57
		c5.327-5.155,10.649-10.315,15.969-15.482"/>
	<path fill="none" stroke="#F8DE0D" stroke-width="4" stroke-linecap="round" stroke-miterlimit="10" d="M281.292,63.044
		c4.646-4.536,9.282-9.078,13.902-13.632"/>
	<path fill="none" stroke="#F8DE0D" stroke-width="4" stroke-linecap="round" stroke-miterlimit="10" d="M161.73,22.762
		c0.861,9.746,1.718,19.492,2.576,29.237"/>
	<path fill="none" stroke="#F8DE0D" stroke-width="4" stroke-linecap="round" stroke-miterlimit="10" d="M71.193,66.793
		c7.197,7.191,14.396,14.382,21.598,21.57"/>
	<path fill="none" stroke="#F8DE0D" stroke-width="4" stroke-linecap="round" stroke-miterlimit="10" d="M31.683,156.283
		c13.63,1.184,27.262,2.369,40.888,3.55"/>
	<path fill="none" stroke="#F8DE0D" stroke-width="4" stroke-linecap="round" stroke-miterlimit="10" d="M54.613,253.973
		c11.054-7.75,22.113-15.498,33.16-23.262"/>
	<path fill="none" stroke="#F8DE0D" stroke-width="4" stroke-linecap="round" stroke-miterlimit="10" d="M136.69,310.105
		c1.699-6.365,3.399-12.73,5.1-19.092"/>
	<path fill="none" stroke="#F8DE0D" stroke-width="4" stroke-linecap="round" stroke-miterlimit="10" d="M223.822,275.027
		c-4.382-9.377-8.764-18.754-13.145-28.131"/>
	<path fill="none" stroke="#F8DE0D" stroke-width="4" stroke-linecap="round" stroke-miterlimit="10" d="M236.113,301.342
		c-2.788-5.971-5.582-11.939-8.37-17.906"/>
	<path fill="none" stroke="#F8DE0D" stroke-width="4" stroke-linecap="round" stroke-miterlimit="10" d="M306.641,230.719
		c-5.971-2.781-11.946-5.557-17.922-8.34"/>
	<path fill="none" stroke="#F8DE0D" stroke-width="4" stroke-linecap="round" stroke-miterlimit="10" d="M315.272,131.283
		c-6.364,1.708-12.721,3.421-19.088,5.126"/>
	<path fill="none" stroke="#F8DE0D" stroke-width="4" stroke-linecap="round" stroke-miterlimit="10" d="M241.329,73.364
		c-4.014,5.742-8.026,11.484-12.045,17.227"/>
	<path fill="none" stroke="#F8DE0D" stroke-width="4" stroke-linecap="round" stroke-miterlimit="10" d="M135.67,25.129
		c3.771,14.025,7.536,28.047,11.303,42.072"/>
	<path fill="none" stroke="#F8DE0D" stroke-width="4" stroke-linecap="round" stroke-miterlimit="10" d="M98.977,116.432
		c4.284,2.997,8.568,5.992,12.853,8.988"/>
	<path fill="none" stroke="#F8DE0D" stroke-width="4" stroke-linecap="round" stroke-miterlimit="10" d="M52.152,83.69
		c9.793,6.848,19.587,13.696,29.381,20.544"/>
	<path fill="none" stroke="#F8DE0D" stroke-width="4" stroke-linecap="round" stroke-miterlimit="10" d="M25.771,65.245
		c5.881,4.11,11.761,8.22,17.639,12.334"/>
	<path fill="none" stroke="#F8DE0D" stroke-width="4" stroke-linecap="round" stroke-miterlimit="10" d="M85.733,177.768
		c7.46-0.664,14.921-1.314,22.381-1.978"/>
	<path fill="none" stroke="#F8DE0D" stroke-width="4" stroke-linecap="round" stroke-miterlimit="10" d="M22.689,182.513
		c15.507-1.367,31.015-2.733,46.521-4.103"/>
	<path fill="none" stroke="#F8DE0D" stroke-width="4" stroke-linecap="round" stroke-miterlimit="10" d="M68.987,274.654
		c10.26-10.275,20.523-20.547,30.783-30.822"/>
	<path fill="none" stroke="#F8DE0D" stroke-width="4" stroke-linecap="round" stroke-miterlimit="10" d="M48.898,294.766
		c4.183-4.188,8.365-8.375,12.55-12.564"/>
	<path fill="none" stroke="#F8DE0D" stroke-width="4" stroke-linecap="round" stroke-miterlimit="10" d="M161.458,317.699
		c0.84-9.664,1.681-19.327,2.52-28.991"/>
	<path fill="none" stroke="#F8DE0D" stroke-width="4" stroke-linecap="round" stroke-miterlimit="10" d="M259.968,291.234
		c-8.337-11.889-16.672-23.777-25.006-35.668"/>
	<path fill="none" stroke="#F8DE0D" stroke-width="4" stroke-linecap="round" stroke-miterlimit="10" d="M277.527,316.275
		c-3.814-5.436-7.623-10.871-11.432-16.307"/>
	<path fill="none" stroke="#F8DE0D" stroke-width="4" stroke-linecap="round" stroke-miterlimit="10" d="M263.968,190.363
		c-6.056-1.615-12.108-3.232-18.162-4.854"/>
	<path fill="none" stroke="#F8DE0D" stroke-width="4" stroke-linecap="round" stroke-miterlimit="10" d="M318.42,207.641
		c-14.027-3.746-28.055-7.496-42.084-11.246"/>
	<path fill="none" stroke="#F8DE0D" stroke-width="4" stroke-linecap="round" stroke-miterlimit="10" d="M309.465,106.032
		c-10.397,4.857-20.794,9.713-31.188,14.569"/>
	<path fill="none" stroke="#F8DE0D" stroke-width="4" stroke-linecap="round" stroke-miterlimit="10" d="M215.641,84.69
		c-3.115,6.693-6.231,13.386-9.348,20.079"/>
	<path fill="none" stroke="#F8DE0D" stroke-width="4" stroke-linecap="round" stroke-miterlimit="10" d="M237.289,33.953
		c-6.128,13.167-12.255,26.331-18.383,39.496"/>
	<path fill="none" stroke="#F8DE0D" stroke-width="4" stroke-linecap="round" stroke-miterlimit="10" d="M128.732,73.958
		c-3.388-7.274-6.775-14.551-10.158-21.827"/>
	<path fill="none" stroke="#F8DE0D" stroke-width="4" stroke-linecap="round" stroke-miterlimit="10" d="M67.477,197.566
		c-10.357,2.77-20.715,5.539-31.079,8.299"/>
	<path fill="none" stroke="#F8DE0D" stroke-width="4" stroke-linecap="round" stroke-miterlimit="10" d="M127.101,237.729
		c-4.938,7.062-9.878,14.122-14.82,21.182"/>
	<path fill="none" stroke="#F8DE0D" stroke-width="4" stroke-linecap="round" stroke-miterlimit="10" d="M102.271,272.145
		c-4.602,6.57-9.213,13.143-13.82,19.709"/>
	<path fill="none" stroke="#F8DE0D" stroke-width="4" stroke-linecap="round" stroke-miterlimit="10" d="M185.349,294.387
		c0.693,7.988,1.39,15.986,2.076,23.98"/>
	<path fill="none" stroke="#F8DE0D" stroke-width="4" stroke-linecap="round" stroke-miterlimit="10" d="M231.978,226.666
		c5.489,5.48,10.978,10.965,16.454,16.449"/>
	<path fill="none" stroke="#F8DE0D" stroke-width="4" stroke-linecap="round" stroke-miterlimit="10" d="M285.355,180.463
		c13.855,1.202,27.711,2.404,41.566,3.613"/>
	<path fill="none" stroke="#F8DE0D" stroke-width="4" stroke-linecap="round" stroke-miterlimit="10" d="M264.046,106.259
		c-1.182,0.82-2.354,1.646-3.531,2.467"/>
	<path fill="none" stroke="#F8DE0D" stroke-width="4" stroke-linecap="round" stroke-miterlimit="10" d="M277.326,97.01
		c6.577-4.604,13.155-9.201,19.729-13.797"/>
	<path fill="none" stroke="#F8DE0D" stroke-width="4" stroke-linecap="round" stroke-miterlimit="10" d="M207.078,39.245
		c1.355-5.036,2.713-10.073,4.067-15.109"/>
	<path fill="none" stroke="#F8DE0D" stroke-width="4" stroke-linecap="round" stroke-miterlimit="10" d="M197.796,73.791
		c1.255-4.679,2.512-9.358,3.77-14.036"/>
	
		<line fill="none" stroke="#F8DE0D" stroke-width="4" stroke-linecap="round" stroke-miterlimit="10" x1="260.515" y1="108.726" x2="253.12" y2="114.194"/>
	<path fill="none" stroke="#F8DE0D" stroke-width="4" stroke-linecap="round" stroke-miterlimit="10" d="M260.616,127.447
		c-5.91,2.596-11.819,5.192-17.73,7.789"/>
	
		<line fill="none" stroke="#F8DE0D" stroke-width="4" stroke-linecap="round" stroke-miterlimit="10" x1="92.791" y1="131.283" x2="29.017" y2="106.032"/>
	
		<line fill="none" stroke="#F8DE0D" stroke-width="4" stroke-linecap="round" stroke-miterlimit="10" x1="266.096" y1="260.962" x2="305.335" y2="299.969"/>
	
		<line fill="none" stroke="#F8DE0D" stroke-width="4" stroke-linecap="round" stroke-miterlimit="10" x1="256.817" y1="51.999" x2="276.336" y2="25.129"/>
</g>
<g id="Layer_2">
	<g>
		<g>
			<g enable-background="new    ">
				<g enable-background="new    ">
					<defs>
						<path id="SVGID_1_" enable-background="new    " d="M227.923,145.99c-2.12,5.444-5.035,10.583-8.746,15.416
							C222.888,156.573,225.803,151.434,227.923,145.99z"/>
					</defs>
					<clipPath id="SVGID_2_">
						<use xlink:href="#SVGID_1_"  overflow="visible"/>
					</clipPath>
					<g clip-path="url(#SVGID_2_)" enable-background="new    ">
						<path fill="#8A8A8A" d="M227.923,145.99c-0.72,1.849-1.532,3.663-2.436,5.442C226.391,149.653,227.203,147.839,227.923,145.99
							"/>
						<path fill="#858585" d="M225.487,151.433c-1.757,3.458-3.86,6.782-6.311,9.973C221.627,158.214,223.73,154.89,225.487,151.433
							"/>
					</g>
				</g>
				<g enable-background="new    ">
					<defs>
						<path id="SVGID_3_" enable-background="new    " d="M181.516,203.898c2.417-5.841,6.713-11.749,12.894-17.725l0,0
							C188.229,192.149,183.933,198.058,181.516,203.898z"/>
					</defs>
					<clipPath id="SVGID_4_">
						<use xlink:href="#SVGID_3_"  overflow="visible"/>
					</clipPath>
					<g clip-path="url(#SVGID_4_)" enable-background="new    ">
						<path fill="#858585" d="M194.409,186.174L194.409,186.174c-5.256,5.082-9.149,10.115-11.684,15.1
							C185.26,196.289,189.153,191.256,194.409,186.174"/>
						<path fill="#8A8A8A" d="M182.726,201.273c-0.445,0.877-0.849,1.751-1.21,2.625C181.877,203.024,182.28,202.15,182.726,201.273
							"/>
					</g>
				</g>
				<g enable-background="new    ">
					<defs>
						<path id="SVGID_5_" enable-background="new    " d="M191.282,141.672c0.873-3.291,1.309-6.531,1.309-9.723
							C192.591,135.141,192.155,138.382,191.282,141.672z"/>
					</defs>
					<clipPath id="SVGID_6_">
						<use xlink:href="#SVGID_5_"  overflow="visible"/>
					</clipPath>
					<g clip-path="url(#SVGID_6_)" enable-background="new    ">
						<path fill="#858585" d="M191.282,141.672c0.873-3.291,1.309-6.531,1.309-9.723
							C192.591,135.141,192.155,138.382,191.282,141.672"/>
					</g>
				</g>
				<g enable-background="new    ">
					<defs>
						<path id="SVGID_7_" enable-background="new    " d="M124.597,116.383c0,0.009,0.008,0.014,0.026,0.014
							C124.605,116.397,124.597,116.392,124.597,116.383z"/>
					</defs>
					<clipPath id="SVGID_8_">
						<use xlink:href="#SVGID_7_"  overflow="visible"/>
					</clipPath>
					<g clip-path="url(#SVGID_8_)" enable-background="new    ">
						<path fill="#8F8F8F" d="M124.597,116.383c0,0.009,0.008,0.014,0.026,0.014C124.605,116.397,124.597,116.392,124.597,116.383"
							/>
					</g>
				</g>
				<g enable-background="new    ">
					<defs>
						<path id="SVGID_9_" enable-background="new    " d="M192.591,131.949c0-9.36-2.69-16.911-8.082-22.653
							C189.9,115.038,192.591,122.589,192.591,131.949z"/>
					</defs>
					<clipPath id="SVGID_10_">
						<use xlink:href="#SVGID_9_"  overflow="visible"/>
					</clipPath>
					<g clip-path="url(#SVGID_10_)" enable-background="new    ">
						<path fill="#858585" d="M192.591,131.949c0-9.36-2.69-16.911-8.082-22.653C189.9,115.038,192.591,122.589,192.591,131.949"/>
					</g>
				</g>
				<g enable-background="new    ">
					<defs>
						<path id="SVGID_11_" enable-background="new    " d="M184.509,109.296c-5.382-5.742-12.708-8.613-21.969-8.613
							C171.801,100.683,179.127,103.554,184.509,109.296z"/>
					</defs>
					<clipPath id="SVGID_12_">
						<use xlink:href="#SVGID_11_"  overflow="visible"/>
					</clipPath>
					<g clip-path="url(#SVGID_12_)" enable-background="new    ">
						<path fill="#858585" d="M184.509,109.296c-5.382-5.742-12.708-8.613-21.969-8.613
							C171.801,100.683,179.127,103.554,184.509,109.296"/>
					</g>
				</g>
				<g enable-background="new    ">
					<defs>
						<path id="SVGID_13_" enable-background="new    " d="M124.623,116.397c-3.123,0-4.68-9.666-4.68-28.998
							C119.943,106.731,121.5,116.397,124.623,116.397z"/>
					</defs>
					<clipPath id="SVGID_14_">
						<use xlink:href="#SVGID_13_"  overflow="visible"/>
					</clipPath>
					<g clip-path="url(#SVGID_14_)" enable-background="new    ">
						<path fill="#858585" d="M124.623,116.397c-3.123,0-4.68-9.666-4.68-28.998C119.943,106.731,121.5,116.397,124.623,116.397"/>
					</g>
				</g>
				<g>
					<path fill="#DDDDDD" d="M216.009,81.351c10.773,10.476,16.155,24.219,16.155,41.238c0,14.598-4.329,27.54-12.987,38.817
						c-1.106,1.314-9.359,9.567-24.768,24.768c-9.271,8.964-14.301,17.775-15.111,26.434c-0.198,2.223-0.405,4.437-0.603,6.65
						c-0.405,1.71-1.863,3.016-4.375,3.924c-2.925,1.009-5.193,1.513-6.804,1.513c-5.13,0-8.154-0.153-9.063-0.45
						c-2.412-0.909-3.618-3.33-3.618-7.254c0-12.087,2.061-21.699,6.192-28.846c6.642-8.667,13.239-17.37,19.782-26.136
						c7.857-10.467,11.781-20.484,11.781-30.06c0-9.36-2.69-16.911-8.082-22.653c-5.382-5.742-12.708-8.613-21.969-8.613
						c-7.461,0-15.741,2.619-24.849,7.857c-9.117,5.238-13.473,7.857-13.068,7.857c-3.123,0-4.68-9.666-4.68-28.998
						c0-1.413,1.512-3.177,4.527-5.292c15.813-10.971,32.427-16.461,49.851-16.461C191.331,65.646,205.227,70.884,216.009,81.351z"
						/>
				</g>
			</g>
			<g>
				<path fill="#DDDDDD" d="M169.632,238.896c5.643,0,10.296,2.033,13.978,6.11c3.672,4.077,5.508,8.938,5.508,14.58
					c0,5.644-1.863,10.575-5.589,14.805c-3.727,4.222-8.361,6.336-13.896,6.336c-5.436,0-9.99-2.114-13.671-6.336
					c-3.672-4.229-5.508-9.161-5.508-14.805c0-5.643,1.809-10.503,5.436-14.58S164.097,238.896,169.632,238.896z"/>
			</g>
		</g>
	</g>
	<g>
	</g>
	<g>
	</g>
	<g>
	</g>
	<g>
	</g>
	<g>
	</g>
	<g>
	</g>
</g>
</svg>
