<?xml version="1.0" encoding="utf-8"?>
<!-- Generator: Adobe Illustrator 16.0.0, SVG Export Plug-In . SVG Version: 6.00 Build 0)  -->
<!DOCTYPE svg PUBLIC "-//W3C//DTD SVG 1.1//EN" "http://www.w3.org/Graphics/SVG/1.1/DTD/svg11.dtd">
<svg version="1.1" xmlns="http://www.w3.org/2000/svg" xmlns:xlink="http://www.w3.org/1999/xlink" x="0px" y="0px" width="612px"
	 height="612px" viewBox="0 0 612 612" enable-background="new 0 0 612 612" xml:space="preserve">
<g id="Layer_1">
	<g>
		<path fill="#E2BF23" d="M313.971,306"/>
		<g>
			<path fill="#E2BF23" d="M313.971,578c71.852,0,141.553-28.887,192.333-79.667S585.971,377.852,585.971,306
				c0-71.851-28.887-141.553-79.667-192.333S385.822,34,313.971,34c-71.851,0-141.553,28.887-192.333,79.667
				S41.971,234.149,41.971,306c0,71.852,28.887,141.553,79.667,192.333S242.12,578,313.971,578L313.971,578z"/>
		</g>
	</g>
</g>
<g id="Layer_2">
	<path fill="#FFFFFF" d="M378.985,316.779l-56.904,26.467c0,0-23.227-88.046,95.229-110.732
		C424.277,295.172,378.985,316.779,378.985,316.779z M305.822,343.246c0,0,6.388-49.695-14.517-66.979
		c-20.904-17.285-24.968-20.526-79.551-43.753c0,0-10.452,54.016,26.13,77.242S305.822,343.246,305.822,343.246z M392.341,392.941
		c30.775-15.666,25.698-77.783,25.698-77.783c-30.046,16.205-43.698,18.365-72.151,36.189
		c-28.452,17.826-25.649,74.002-25.649,74.002L392.341,392.941z M306.741,425.35c0,0,6.049-56.176-20.081-69.68
		c0,0,5.946-5.941-76.287-40.512c0,0-8.489,57.797,30.415,79.943S306.741,425.35,306.741,425.35z M306.017,486.213
		c-0.388-9.004-1.549-13.504-1.549-13.504c-5.612-26.469-21.872-38.172-21.872-38.172c-15.097-13.324-71.615-36.195-71.615-36.195
		c-2.516,33.127,0,36.736,0,36.736c4.839,27.008,26.904,41.508,26.904,41.508c22.259,10.533,65.615,31.418,65.615,31.418v37.992
		c1.936,8.643,10.451,8.822,10.451,8.822c7.161,0.361,10.646-9.543,10.646-9.543l0.193-37.461
		c3.291-3.061,56.518-26.467,56.518-26.467c29.42-15.666,34.259-41.773,34.259-41.773c3.871-12.602,1.355-41.232,1.355-41.232
		c-23.613,12.064-48.775,23.047-48.775,23.047c-25.937,8.104-35.615,27.91-35.615,27.91c-11.226,15.123-10.258,36.91-10.258,36.91
		c-3.483,5.221-8.323,4.861-8.323,4.861C308.531,490.705,306.017,486.213,306.017,486.213z M402.599,222.251l15.44-7.203v-81.024
		c0,0-7.505-12.064-15.44,0V222.251z M225.691,133.846c-7.936-11.884-15.318,0-15.318,0v81.204l15.318,7.202V133.846z
		 M363.889,240.616l14.807-8.102V91.262c0,0-6.097-12.694-14.807,0V240.616z M340.081,154.19V62.093c0,0-6.097-11.073-14.807,0
		v74.002L340.081,154.19z M287.241,154.19l14.807-18.636V62.903c0,0-6.097-12.424-14.807,0V154.19z M249.208,232.514V90.992
		c8.42-12.964,14.517,0,14.517,0v149.624L249.208,232.514z M313.951,147.168c0,0-4.348,7.321-11.828,15.709
		c-17.785,19.942-24.062,35.395-23.592,44.789c1.161,23.227-2.903,22.687,35.42,68.601c0,0,9.247-8.18,15.025-14.52
		c8.826-9.684,17.705-24.909,20.396-43.818C354.598,181.198,313.951,157.431,313.951,147.168z"/>
</g>
</svg>
