<?xml version="1.0" encoding="utf-8"?>
<!-- Generator: Adobe Illustrator 16.0.0, SVG Export Plug-In . SVG Version: 6.00 Build 0)  -->
<!DOCTYPE svg PUBLIC "-//W3C//DTD SVG 1.1//EN" "http://www.w3.org/Graphics/SVG/1.1/DTD/svg11.dtd">
<svg version="1.1" xmlns="http://www.w3.org/2000/svg" xmlns:xlink="http://www.w3.org/1999/xlink" x="0px" y="0px" width="350px"
	 height="350px" viewBox="0 0 350 350" enable-background="new 0 0 350 350" xml:space="preserve">
<g id="Layer_1" display="none">
	<g display="inline">
		
			<image overflow="visible" width="1600" height="1600" xlink:href="72DCBC13.jpg"  transform="matrix(0.2188 0 0 -0.2181 -4.882813e-004 350)">
		</image>
	</g>
</g>
<g id="Layer_2">
	<polygon fill="#231F20" points="62.5,81 47,96.5 76,125.5 127.5,74 112.5,59.5 76.5,95 	"/>
	<g>
		<polygon fill="#231F20" points="62.5,168.5 47,184 76,213 127.5,161.5 112.5,147 76.5,182.5 		"/>
		<polygon fill="#231F20" points="62.5,256 47,271.5 76,300.5 127.5,249 112.5,234.5 76.5,270 		"/>
	</g>
	<rect x="164.5" y="76.5" fill="#231F20" width="141" height="22.5"/>
	<g>
		<rect x="164.5" y="164.25" fill="#231F20" width="141" height="22.5"/>
		<rect x="164.5" y="252" fill="#231F20" width="141" height="22.5"/>
	</g>
	<g>
	</g>
	<g>
	</g>
	<g>
	</g>
	<g>
	</g>
	<g>
	</g>
	<g>
	</g>
</g>
</svg>
