<?xml version="1.0" encoding="utf-8"?>
<!-- Generator: Adobe Illustrator 16.0.0, SVG Export Plug-In . SVG Version: 6.00 Build 0)  -->
<!DOCTYPE svg PUBLIC "-//W3C//DTD SVG 1.1//EN" "http://www.w3.org/Graphics/SVG/1.1/DTD/svg11.dtd">
<svg version="1.1" id="Layer_1" xmlns="http://www.w3.org/2000/svg" xmlns:xlink="http://www.w3.org/1999/xlink" x="0px" y="0px"
	 width="350px" height="350px" viewBox="0 0 350 350" enable-background="new 0 0 350 350" xml:space="preserve">
<g id="Layer_1_1_" display="none">
	<g display="inline">
	</g>
</g>
<g id="Layer_2">
	<path fill="#3D7CB3" d="M127,202.048c0,7.17-5.565,12.981-12.432,12.981H33.765c-6.866,0-12.432-5.813-12.432-12.981v-54.096
		c0-7.17,5.565-12.983,12.432-12.983h80.803c6.866,0,12.432,5.813,12.432,12.983V202.048z"/>
	<path fill="#3D7CB3" d="M112,129.333v-28.667c0,0,1.333-16.666,15.333-7.333l94,81.945l-90,79.389c0,0-12.667,15.999-19.333-3.334
		V129.333z"/>
	<path fill="#3D7CB3" d="M59,109.333V38.666c0,0,3.333-27.667,31.333-32h199.333c0,0,25,3.667,31,32.667l-0.333,274.665
		c0,0-6.666,27-33,30H92.667c0,0-25.334-1.001-33.667-31.667v-71.666h26.333l0.333,68.333c0,0,0.333,9.666,13,10.333l186.667,0.667
		c0,0,9.334-1,10-11l0.333-264c0,0,0-11.667-12-13.333L97,31.999c0,0-11,1-11.667,12.667v65L59,109.333z"/>
</g>
</svg>
