<?xml version="1.0" encoding="utf-8"?>
<!-- Generator: Adobe Illustrator 16.0.0, SVG Export Plug-In . SVG Version: 6.00 Build 0)  -->
<!DOCTYPE svg PUBLIC "-//W3C//DTD SVG 1.1//EN" "http://www.w3.org/Graphics/SVG/1.1/DTD/svg11.dtd">
<svg version="1.1" xmlns="http://www.w3.org/2000/svg" xmlns:xlink="http://www.w3.org/1999/xlink" x="0px" y="0px" width="612px"
	 height="612px" viewBox="0 0 612 612" enable-background="new 0 0 612 612" xml:space="preserve">
<g id="Layer_4">
	<circle fill="#2BA7AA" cx="312.585" cy="216" r="177.5"/>
</g>
<g id="Layer_5">
	<path fill="#FFFFFF" d="M250.582,124.461h123.98v194.666h-123.98V124.461z M245.273,119.461v204.334h134.333V119.461H245.273
		 M242.018,320.88l-58.865,2.915V103.858l58.865,15.603V320.88z M238.5,122.5L187,108.75V322l51.5-5.25V122.5z M383.152,119.461
		l58.865-15.603v219.937l-58.865-2.915V119.461z M386.67,316.75l51.5,5.25V108.75l-51.5,13.75V316.75z M250.582,172.75h123.98v2.75
		h-123.98V172.75z M250.582,259.25h123.98v-3h-123.98V259.25z M314.5,319.127V259.25h-4.25v59.877H314.5z M386.67,183.25l51.5-2.75
		v-3.25l-51.5,3.25V183.25z M386.67,224.627l51.5-2.75v-3.25l-51.5,3.25V224.627z M386.67,265.75l51.5-2.75v-3.25l-51.5,3.25V265.75
		z M238.335,182.253l-51.5-3.25v3.25l51.5,2.75V182.253z M238.335,227.877l-51.5-3.25v3.25l51.5,2.75V227.877z M238.335,274.753
		l-51.5-3.25v3.25l51.5,2.75V274.753z M293.25,264.375c0,0.897-0.728,1.625-1.625,1.625h-23.25c-0.897,0-1.625-0.728-1.625-1.625
		l0,0c0-0.897,0.728-1.625,1.625-1.625h23.25C292.522,262.75,293.25,263.478,293.25,264.375L293.25,264.375z M356.75,264.375
		c0-0.897-0.728-1.625-1.625-1.625h-22.75c-0.897,0-1.625,0.728-1.625,1.625l0,0c0,0.897,0.728,1.625,1.625,1.625h22.75
		C356.022,266,356.75,265.272,356.75,264.375L356.75,264.375z"/>
</g>
<g id="Layer_6">
	<radialGradient id="SVGID_1_" cx="315.5" cy="205.3311" r="44.6698" gradientUnits="userSpaceOnUse">
		<stop  offset="0.064" style="stop-color:#E24D53"/>
		<stop  offset="0.2267" style="stop-color:#F58755"/>
		<stop  offset="0.3744" style="stop-color:#E8E150"/>
		<stop  offset="0.5271" style="stop-color:#4FB267"/>
		<stop  offset="0.665" style="stop-color:#2EA4C4"/>
		<stop  offset="0.799" style="stop-color:#5865AE"/>
		<stop  offset="0.9557" style="stop-color:#8961A9"/>
	</radialGradient>
	<ellipse fill="url(#SVGID_1_)" cx="315.5" cy="205.331" rx="45.167" ry="44.167"/>
</g>
<g id="Layer_8">
	<path fill="#2D2D2D" d="M300.97,190.21c0,0,5.143-12.166,16.806-7.901c0,0,7.399,1.505,8.905,11.664c0,0,1.254,10.284-9.783,14.047
		c0,0,1.631,6.647-3.763,7.023c0,0-4.515-0.376-3.511-5.644c0,0-0.628-5.769,3.637-7.776c0,0,8.277-1.63,5.268-9.03
		c0,0-1.505-5.895-8.152-2.885c0,0-2.634,1.63-3.387,3.888c0,0-2.132,1.254-4.264,0.251
		C302.726,193.848,300.97,192.468,300.97,190.21z M309.874,224.701c0.627,1.755,3.931,2.132,3.931,2.132
		c4.557-1.254,2.968-5.393,2.968-5.393c-2.383-4.013-5.77-1.128-5.77-1.128C308.756,221.29,309.874,224.701,309.874,224.701z
		 M329.354,203.512c0,0,6.061-6.324,12.279-0.926c0,0,4.23,2.681,2.764,9.331c0,0-1.652,6.669-9.381,6.394
		c0,0-0.56,4.504-3.99,3.463c0,0-2.709-1.3-0.843-4.327c0,0,0.974-3.723,4.091-3.959c0,0,5.514,0.945,5.396-4.351
		c0,0,0.461-4.009-4.37-3.714c0,0-2.017,0.388-3.017,1.609c0,0-1.617,0.273-2.701-0.852
		C329.583,206.181,328.821,204.911,329.354,203.512z M326.724,226.988c-0.026,1.236,1.932,2.25,1.932,2.25
		c3.121,0.299,3.113-2.641,3.113-2.641c-0.527-3.049-3.309-2.062-3.309-2.062C326.837,224.61,326.724,226.988,326.724,226.988z
		 M280.464,209.098c0,0,0.162-8.757,8.394-9.01c0,0,4.927-0.9,8.36,4.98c0,0,3.311,6.021-2.555,11.062c0,0,2.645,3.688-0.582,5.251
		c0,0-2.872,0.883-3.555-2.607c0,0-1.81-3.396,0.32-5.684c0,0,4.691-3.046,1.013-6.857c0,0-2.381-3.258-5.729,0.236
		c0,0-1.219,1.653-1.125,3.229c0,0-1.003,1.298-2.563,1.207C282.442,210.904,281.021,210.487,280.464,209.098z M294.458,228.13
		c0.818,0.926,2.945,0.342,2.945,0.342c2.495-1.898,0.494-4.053,0.494-4.053c-2.455-1.882-3.829,0.73-3.829,0.73
		C292.927,226.306,294.458,228.13,294.458,228.13z"/>
</g>
</svg>
