<?xml version="1.0" encoding="utf-8"?>
<!-- Generator: Adobe Illustrator 16.0.0, SVG Export Plug-In . SVG Version: 6.00 Build 0)  -->
<!DOCTYPE svg PUBLIC "-//W3C//DTD SVG 1.1//EN" "http://www.w3.org/Graphics/SVG/1.1/DTD/svg11.dtd">
<svg version="1.1" xmlns="http://www.w3.org/2000/svg" xmlns:xlink="http://www.w3.org/1999/xlink" x="0px" y="0px" width="128px"
	 height="122px" viewBox="0 0 128 122" enable-background="new 0 0 128 122" xml:space="preserve">
<g id="Layer_2" display="none">
	
		<rect x="3.667" y="4.436" display="inline" fill="#100F0F" stroke="#FFFFFF" stroke-linecap="round" stroke-miterlimit="10" width="120" height="115.794"/>
</g>
<g id="RegAsc">
	<g>
		
			<line fill="none" stroke="#FFFFFF" stroke-width="12" stroke-linecap="round" stroke-miterlimit="10" x1="29.37" y1="11.507" x2="29.37" y2="89.133"/>
		
			<polygon fill="#FFFFFF" stroke="#FFFFFF" stroke-width="5" stroke-linecap="round" stroke-linejoin="round" stroke-miterlimit="10" points="
			9.9,87.176 51.871,87.176 28.787,110.492 6.869,87.176 		"/>
	</g>
	<g>
		
			<line fill="none" stroke="#FFFFFF" stroke-width="12" stroke-linecap="round" stroke-miterlimit="10" x1="65.334" y1="11.507" x2="113.168" y2="11.507"/>
		
			<line fill="none" stroke="#FFFFFF" stroke-width="12" stroke-linecap="round" stroke-miterlimit="10" x1="65.334" y1="43.507" x2="105.166" y2="43.507"/>
		
			<line fill="none" stroke="#FFFFFF" stroke-width="12" stroke-linecap="round" stroke-miterlimit="10" x1="65.334" y1="74.842" x2="95.333" y2="74.842"/>
		
			<line fill="none" stroke="#FFFFFF" stroke-width="12" stroke-linecap="round" stroke-miterlimit="10" x1="65.334" y1="106.842" x2="84" y2="106.842"/>
	</g>
</g>
<g id="RegDesc" display="none">
	<g display="inline">
		
			<line fill="none" stroke="#FFFFFF" stroke-width="12" stroke-linecap="round" stroke-miterlimit="10" x1="113.418" y1="110" x2="65.584" y2="110"/>
		
			<line fill="none" stroke="#FFFFFF" stroke-width="12" stroke-linecap="round" stroke-miterlimit="10" x1="113.418" y1="78" x2="73.586" y2="78"/>
		
			<line fill="none" stroke="#FFFFFF" stroke-width="12" stroke-linecap="round" stroke-miterlimit="10" x1="113.418" y1="46.666" x2="83.419" y2="46.666"/>
		
			<line fill="none" stroke="#FFFFFF" stroke-width="12" stroke-linecap="round" stroke-miterlimit="10" x1="113.418" y1="14.666" x2="94.752" y2="14.666"/>
	</g>
	<g display="inline">
		
			<line fill="none" stroke="#FFFFFF" stroke-width="12" stroke-linecap="round" stroke-miterlimit="10" x1="36.499" y1="12.841" x2="36.499" y2="90.466"/>
		
			<polygon fill="#FFFFFF" stroke="#FFFFFF" stroke-width="5" stroke-linecap="round" stroke-linejoin="round" stroke-miterlimit="10" points="
			17.029,88.509 59,88.509 35.916,111.825 13.998,88.509 		"/>
	</g>
</g>
<g id="AlphaAsc" display="none">
	<g display="inline">
		
			<line fill="none" stroke="#FFFFFF" stroke-width="12" stroke-linecap="round" stroke-miterlimit="10" x1="30.333" y1="12.841" x2="30.333" y2="90.466"/>
		
			<polygon fill="#FFFFFF" stroke="#FFFFFF" stroke-width="5" stroke-linecap="round" stroke-linejoin="round" stroke-miterlimit="10" points="
			10.864,88.509 52.834,88.509 29.75,111.825 7.833,88.509 		"/>
	</g>
	
		<line display="inline" fill="none" stroke="#FFFFFF" stroke-width="12" stroke-linecap="round" stroke-miterlimit="10" x1="66.297" y1="44.841" x2="106.129" y2="44.841"/>
	
		<line display="inline" fill="none" stroke="#FFFFFF" stroke-width="12" stroke-linecap="round" stroke-miterlimit="10" x1="66.297" y1="76.175" x2="96.297" y2="76.175"/>
	
		<line display="inline" fill="none" stroke="#FFFFFF" stroke-width="12" stroke-linecap="round" stroke-miterlimit="10" x1="66.297" y1="108.175" x2="84.963" y2="108.175"/>
	<g display="inline">
		<rect x="60.88" y="12.841" fill="none" width="50.666" height="18.318"/>
		<path fill="#FFFFFF" d="M72.312,30.32l-1.122-3.908h-5.66l-1.135,3.908h-3.515l5.334-16.486h4.257l5.356,16.486H72.312z
			 M70.381,23.492l-1.057-3.594c-0.045-0.135-0.111-0.355-0.201-0.663s-0.186-0.646-0.287-1.016
			c-0.102-0.371-0.196-0.743-0.286-1.118s-0.153-0.692-0.19-0.955c-0.03,0.165-0.07,0.359-0.119,0.584
			c-0.048,0.225-0.104,0.462-0.168,0.713c-0.063,0.251-0.129,0.504-0.196,0.758s-0.131,0.494-0.19,0.719
			c-0.061,0.225-0.115,0.423-0.164,0.595c-0.048,0.172-0.084,0.299-0.105,0.382l-1.045,3.594H70.381z"/>
		<path fill="#FFFFFF" d="M82.487,25.559v-2.808h6.03v2.808H82.487z"/>
		<path fill="#FFFFFF" d="M107.024,30.32H95.728v-2.257l6.951-11.287H95.94v-2.875h10.871v2.246l-6.94,11.298h7.153V30.32z"/>
	</g>
</g>
<g id="AlphaDesc" display="none">
	
		<line display="inline" fill="none" stroke="#FFFFFF" stroke-width="12" stroke-linecap="round" stroke-miterlimit="10" x1="109.418" y1="108.667" x2="61.584" y2="108.667"/>
	
		<line display="inline" fill="none" stroke="#FFFFFF" stroke-width="12" stroke-linecap="round" stroke-miterlimit="10" x1="109.418" y1="76.667" x2="69.586" y2="76.667"/>
	
		<line display="inline" fill="none" stroke="#FFFFFF" stroke-width="12" stroke-linecap="round" stroke-miterlimit="10" x1="109.418" y1="45.333" x2="79.42" y2="45.333"/>
	<g display="inline">
		
			<line fill="none" stroke="#FFFFFF" stroke-width="12" stroke-linecap="round" stroke-miterlimit="10" x1="32.5" y1="11.508" x2="32.5" y2="89.133"/>
		
			<polygon fill="#FFFFFF" stroke="#FFFFFF" stroke-width="5" stroke-linecap="round" stroke-linejoin="round" stroke-miterlimit="10" points="
			13.03,87.176 55,87.176 31.917,110.492 9.999,87.176 		"/>
	</g>
	<g display="inline">
		<rect x="64.169" y="11.508" fill="none" width="50.666" height="18.318"/>
		<path fill="#FFFFFF" d="M76.017,28.987H64.719V26.73l6.951-11.287h-6.738v-2.875h10.872v2.246l-6.94,11.298h7.153V28.987z"/>
		<path fill="#FFFFFF" d="M83.228,24.226v-2.808h6.03v2.808H83.228z"/>
		<path fill="#FFFFFF" d="M107.35,28.987l-1.123-3.908h-5.66l-1.134,3.908h-3.516l5.334-16.486h4.257l5.356,16.486H107.35z
			 M105.418,22.159l-1.056-3.594c-0.045-0.135-0.112-0.355-0.202-0.663s-0.186-0.646-0.286-1.016
			c-0.102-0.371-0.197-0.743-0.287-1.118s-0.153-0.692-0.19-0.955c-0.03,0.165-0.069,0.359-0.118,0.584s-0.104,0.462-0.168,0.713
			c-0.063,0.251-0.129,0.504-0.197,0.758c-0.066,0.254-0.131,0.494-0.19,0.719s-0.114,0.423-0.163,0.595s-0.084,0.299-0.106,0.382
			l-1.044,3.594H105.418z"/>
	</g>
</g>
</svg>
