<?xml version="1.0" encoding="utf-8"?>
<!-- Generator: Adobe Illustrator 16.0.0, SVG Export Plug-In . SVG Version: 6.00 Build 0)  -->
<!DOCTYPE svg PUBLIC "-//W3C//DTD SVG 1.1//EN" "http://www.w3.org/Graphics/SVG/1.1/DTD/svg11.dtd">
<svg version="1.1" id="Layer_2" xmlns="http://www.w3.org/2000/svg" xmlns:xlink="http://www.w3.org/1999/xlink" x="0px" y="0px"
	 width="128px" height="122px" viewBox="0 0 128 122" enable-background="new 0 0 128 122" xml:space="preserve">
<g>
	<rect x="15.375" y="56.625" fill="#3E7DB4" width="12.563" height="27.75"/>
	<rect x="34.313" y="38.938" fill="#3E7DB4" width="12.688" height="45.438"/>
	<rect x="53.313" y="49" fill="#3E7DB4" width="12.625" height="35.375"/>
</g>
<path fill="#525454" d="M35,34.438V21.75c0,0,0.25-2.313,2.375-2.313h63.563c0,0,2.5,0.25,2.5,2.5l-0.063,52.375
	c0,0,0.625,5.125-3.938,10.063l-19.375,19.813c0,0-2.625,2.313-5.813,2.313h-36.5c0,0-2.75,0-2.75-2.625V89.25h5.656v11.5H72.25
	c0,0,3.875-0.688,4.563-4.875c0,0,0.75-1.438,0.75-6.125v-6.938c0,0-0.25-2.75,2.875-2.75l7.438-0.125c0,0,3.813,0.25,7.188-1.875
	c0,0,2.625-1.5,2.625-4.688L97.75,25.25l-57.094-0.125v9.313H35z"/>
<g>
</g>
<g>
</g>
<g>
</g>
<g>
</g>
<g>
</g>
<g>
</g>
</svg>
