<?xml version="1.0" encoding="UTF-8" standalone="no"?>
<!-- Generator: Adobe Illustrator 21.1.0, SVG Export Plug-In . SVG Version: 6.00 Build 0)  -->

<svg
fill="none" 
   xmlns:dc="http://purl.org/dc/elements/1.1/"
   xmlns:cc="http://creativecommons.org/ns#"
   xmlns:rdf="http://www.w3.org/1999/02/22-rdf-syntax-ns#"
   xmlns:svg="http://www.w3.org/2000/svg"
   xmlns="http://www.w3.org/2000/svg"
   xmlns:sodipodi="http://sodipodi.sourceforge.net/DTD/sodipodi-0.dtd"
   xmlns:inkscape="http://www.inkscape.org/namespaces/inkscape"
   version="1.1"
   id="Layer_1"
   x="0px"
   y="0px"
   width="51.021721"
   height="50.827446"
   viewBox="0 0 51.021721 50.827446"
   xml:space="preserve"
   sodipodi:docname="overcooked-logo.svg"
   inkscape:version="0.92.1 r15371"><metadata
   id="metadata57"><rdf:RDF><cc:Work
       rdf:about=""><dc:format>image/svg+xml</dc:format><dc:type
         rdf:resource="http://purl.org/dc/dcmitype/StillImage" /><dc:title></dc:title></cc:Work></rdf:RDF></metadata><defs
   id="defs55">
		
		
		
		
		
		
		
		
		
		
		
		
		
		
		
		
		
		
		
		
		
		
	</defs><sodipodi:namedview
   pagecolor="#ffffff"
   bordercolor="#666666"
   borderopacity="1"
   objecttolerance="10"
   gridtolerance="10"
   guidetolerance="10"
   inkscape:pageopacity="0"
   inkscape:pageshadow="2"
   inkscape:window-width="1519"
   inkscape:window-height="964"
   id="namedview53"
   showgrid="false"
   inkscape:zoom="3.7756213"
   inkscape:cx="111.14265"
   inkscape:cy="20.94958"
   inkscape:window-x="0"
   inkscape:window-y="0"
   inkscape:window-maximized="0"
   inkscape:current-layer="g50" />
<style
   type="text/css"
   id="style2">
	.st0{fill:#FEFEFE;}
	.st1{fill:#8C8C8C;}
	.st2{fill:#FAA26D;}
	.st3{fill:#626673;}
	.st4{fill:#fa8c4a;}
</style>
<g
   id="g50"
   transform="translate(-7.2,-15.2)">
	<path
   style="fill:#626673"
   inkscape:connector-curvature="0"
   id="path10"
   d="m 142.48169,43.340572 c -0.1,-11.1 7.5,-20.3 19.80001,-21.9 6.7,-0.9 13,0.4 18.5,4.5 6.3,4.7 8.9,11.3 8.4,19 -0.8,11.4 -9.2,19 -20.1,20.2 -4.6,0.5 -9.1,0 -13.40001,-1.8 -8.3,-3.4 -13.2,-10.8 -13.2,-20 z"
   class="st3" /><path
   style="fill:#626673"
   inkscape:connector-curvature="0"
   id="path12"
   d="m 411.3,38.1 c 0,-4.5 0,-8.8 0,-13.1 0,-0.4 0,-0.9 0,-1.3 0,-0.5 0.2,-0.6 0.6,-0.6 3.4,0 6.9,0 10.3,0 0.5,0 0.6,0.2 0.6,0.7 0,0.2 0,0.4 0,0.6 0,13.4 0,26.8 0,40.2 0,1.1 -0.2,1.3 -1.3,1.3 -3,-0.1 -6.1,-0.1 -9.1,0 -1,0 -1.2,-0.3 -1.1,-1.2 0.1,-0.6 0,-1.2 0,-1.8 -0.4,-0.2 -0.5,0.1 -0.6,0.3 -5.5,5.6 -15.3,3.9 -19.2,-2.7 -1.3,-2.1 -2,-4.4 -2.3,-6.8 -0.5,-4.9 -0.2,-9.7 2.7,-14 4.3,-6.4 14,-7.7 19.4,-1.6 z"
   class="st3" /><path
   style="fill:#626673"
   inkscape:connector-curvature="0"
   id="path14"
   d="m 332.7,45.5 c 2.1,-3.2 4.2,-6.4 6.2,-9.7 0.5,-0.7 0.9,-1 1.8,-1 4.2,0 8.4,0 12.8,0 -1.1,1.5 -2.2,2.9 -3.2,4.2 -2.2,2.9 -4.3,5.8 -6.5,8.6 -0.7,0.9 -0.8,1.5 -0.1,2.5 3.3,4.8 6.5,9.7 9.8,14.5 0.2,0.3 0.4,0.6 0.6,0.9 -0.3,0.4 -0.6,0.2 -0.9,0.2 -4,0 -8.1,0 -12.1,0 -0.8,0 -1.2,-0.3 -1.5,-1 -1.5,-3 -3.1,-5.9 -4.8,-9 -1.4,1.6 -2.7,3 -2.3,5.3 0.2,1.2 0,2.4 0.1,3.6 0.1,0.9 -0.3,1 -1.1,1 -3.2,0 -6.3,-0.1 -9.5,0 -1.1,0 -1,-0.5 -1,-1.2 0,-10.3 0,-20.5 0,-30.8 0,-3.2 0,-6.5 0,-9.7 0,-0.8 0.2,-1 1,-1 3.2,0 6.3,0.1 9.5,0 0.9,0 1.1,0.2 1.1,1.1 0,6.9 0,13.8 0,20.6 0,0.2 0,0.4 0,0.6 0,0.2 0,0.2 0.1,0.3 z"
   class="st3" /><path
   style="fill:#626673"
   inkscape:connector-curvature="0"
   id="path18"
   d="m 245.4,50.2 c 0,-8.2 5.8,-14.8 13.9,-15.9 5.3,-0.7 10.4,-0.1 14.7,3.3 5.3,4.1 7.1,9.8 5.7,16.2 -1.4,6.6 -5.8,10.6 -12.3,12.1 -3.6,0.9 -7.3,0.7 -10.9,-0.4 -6.7,-2.1 -11.1,-8.1 -11.1,-15.3 z"
   class="st3" /><path
   style="fill:#626673"
   inkscape:connector-curvature="0"
   id="path20"
   d="m 299.5,34.1 c 5.9,0.2 11.1,1.9 14.6,7 6.9,10 0.7,23.7 -11.4,25.2 -3.6,0.4 -7.1,0.2 -10.5,-1.1 -6.8,-2.7 -10.7,-9.2 -10,-16.8 0.6,-6.7 5.8,-12.3 12.6,-13.8 1.6,-0.3 3.1,-0.5 4.7,-0.5 z"
   class="st3" /><path
   style="fill:#626673"
   inkscape:connector-curvature="0"
   id="path22"
   d="m 366.3,53.8 c 0.8,1.8 2,2.8 3.7,3.4 3.3,1.1 6.4,0.3 9.4,-1.2 0.6,-0.3 0.9,-0.3 1.3,0.3 1.2,1.9 2.4,3.8 3.7,5.6 0.5,0.7 0.3,1.1 -0.3,1.5 -2.4,1.6 -5.1,2.4 -7.9,2.9 -3.7,0.6 -7.4,0.6 -11,-0.6 -6.8,-2.3 -10.9,-8.3 -10.7,-15.8 0.3,-8.7 6.9,-15.3 15.7,-15.6 10.1,-0.4 16.9,6.1 17.2,16.5 0.1,3.2 0.1,3.2 -3,3.2 -5.6,0 -11.1,0 -16.7,0 -0.4,-0.2 -0.8,-0.2 -1.4,-0.2 z"
   class="st3" /><path
   style="fill:#626673"
   inkscape:connector-curvature="0"
   id="path24"
   d="m 166.1,53.8 c 1.3,2.7 3.4,3.7 6,3.8 2.8,0.1 5.4,-0.6 7.8,-2 1.5,2.2 2.9,4.4 4.4,6.5 0.4,0.5 0.1,0.8 -0.3,1 -2,1.5 -4.4,2.3 -6.8,2.8 -3.9,0.8 -7.8,0.9 -11.6,-0.2 -7.3,-2.1 -11.6,-8.2 -11.4,-16 0.3,-8.7 6.8,-15.3 15.7,-15.6 10.1,-0.4 16.9,6.1 17.3,16.6 0.1,3.1 0.1,3.1 -3,3.1 -6,0 -11.9,0 -18.1,0 z"
   class="st3" /><path
   style="fill:#626673"
   inkscape:connector-curvature="0"
   id="path26"
   d="m 118.2,34.8 c 3.8,0 7.6,0 11.4,0 0.8,0 0.9,0.5 1,1 1.7,5 3.4,10.1 5,15.1 0.1,0.4 0.2,0.9 0.6,1.3 1.8,-5.5 3.7,-10.9 5.5,-16.3 0.3,-0.8 0.6,-1.1 1.5,-1.1 3.6,0.1 7.3,0 10.9,0 0.1,0.5 -0.1,0.8 -0.3,1.2 -3.7,9.6 -7.4,19.1 -11.1,28.7 -0.3,0.8 -0.7,1.1 -1.6,1.1 -3.4,-0.1 -6.8,0 -10.2,0 -0.6,0 -0.9,-0.1 -1.2,-0.7 -3.8,-10 -7.7,-19.9 -11.6,-29.9 0.1,-0.1 0.1,-0.2 0.1,-0.4 z"
   class="st3" /><path
   style="fill:#626673"
   inkscape:connector-curvature="0"
   id="path28"
   d="m 213.5,50.2 c 0,-8.3 5.7,-14.7 13.9,-15.9 4.6,-0.6 9.1,-0.2 13.1,2.4 1.1,0.7 2.2,1.6 3,2.7 0.3,0.4 0.4,0.7 -0.1,1.1 -2.2,2 -4.3,4 -6.4,6 -0.4,0.4 -0.6,0.4 -1,0 -1.9,-2 -4.3,-2.4 -6.8,-1.7 -2.8,0.8 -4.3,3.3 -3.9,6.6 0.3,2.7 2.5,4.7 5.4,4.9 2,0.1 3.8,-0.5 5.2,-2 0.4,-0.5 0.7,-0.6 1.2,-0.1 2.1,2 4.2,4 6.3,5.9 0.5,0.5 0.5,0.8 0,1.3 -2,2.3 -4.5,3.8 -7.4,4.6 -4.2,1.1 -8.4,0.9 -12.5,-0.7 -6.3,-2.5 -10,-8.1 -10,-15.1 z"
   class="st3" /><path
   style="fill:#626673"
   inkscape:connector-curvature="0"
   id="path32"
   d="m 202.4,38.1 c 2.4,-2.4 5,-3.7 8,-4.2 1.5,-0.3 1.5,-0.2 1.5,1.2 0,2.9 0,5.8 0,8.8 0,0.9 -0.2,1 -1.1,0.9 -2.5,-0.3 -4.9,0 -7.2,1.1 -0.9,0.4 -1.3,1 -1.3,2.1 0.1,5.5 0,11 0.1,16.6 0,1.1 -0.3,1.3 -1.3,1.3 -3.1,-0.1 -6.2,0 -9.2,0 -0.8,0 -1,-0.2 -1,-1 0,-9.7 0,-19.4 0,-29 0,-0.8 0.2,-1 1,-1 3.2,0 6.4,0 9.6,0 0.8,0 1,0.3 1,1 -0.1,0.6 -0.1,1.3 -0.1,2.2 z"
   class="st3" /><g
   id="g3762"><path
     class="st1"
     d="M 7.4,55.1 H 7.3 L 7.2,55 c 0,-0.6 0,-1.3 0,-1.9 0.1,0 0.2,0 0.2,0 0.5,0.6 0.5,1.3 0,2 z"
     id="path6"
     inkscape:connector-curvature="0"
     style="fill:#8c8c8c" /><path
     class="st2"
     d="m 22.5,15.4 c 0,-0.1 0,-0.1 0,-0.2 0.5,0 1,0 1.4,0 0,0.1 0,0.2 0,0.2 -0.4,0.4 -0.9,0.4 -1.4,0 z"
     id="path8"
     inkscape:connector-curvature="0"
     style="fill:#faa26d" /><path
     class="st4"
     d="m 22.5,15.4 c 0.5,0 1,0 1.5,0 7.3,2.5 13,7 16.9,13.6 0.5,0.9 0.9,1 1.7,0.4 3.3,-2.1 5.9,-4.8 8.1,-8.1 1,-1.6 2.2,-1.6 3.3,-0.1 5.9,8.1 5.6,17.8 -0.8,25.4 -0.3,0.3 -0.5,0.6 -0.9,0.6 -2.5,0 -5,0 -7.7,0 0.9,-1.5 1.7,-2.7 2.3,-4.1 0.6,-1.4 1,-2.8 1.1,-4.6 -1.7,1.6 -3.6,2.6 -5.6,3.6 -1.3,0.6 -2.7,1.1 -4.2,1.3 -0.8,0.1 -1.2,-0.1 -1.4,-0.9 -1.3,-4.4 -4.1,-7.4 -8.2,-9.3 -0.8,-0.4 -1,-0.2 -1.2,0.6 -1.3,4.8 -0.6,9.2 2.1,13.3 -0.2,0.4 -0.6,0.2 -0.9,0.2 -1.4,0 -2.8,-0.2 -4.2,0 -2.3,0.3 -3.5,-0.6 -4.7,-2.5 -5.2,-8.4 -5.2,-16.7 -0.3,-25.2 0.9,-1.4 1.7,-3 3.1,-4.2 z"
     id="path16"
     inkscape:connector-curvature="0"
     style="fill:#fa8c4a" /><path
     class="st3"
     d="m 37.2,50.7 c 5.7,0 11.3,0 17,0 3.2,0 4.6,2 3.7,5.1 -1.7,5.6 -5.8,8.5 -11.3,9.4 -6.7,1.2 -13.4,1.2 -20,-0.7 -2.8,-0.8 -5.1,-2.4 -6.8,-4.8 -0.9,-1.2 -1.3,-2.5 -1.2,-3.9 0,-1.2 0.1,-2.4 0,-3.6 -0.1,-1.1 0.2,-1.6 1.5,-1.6 5.6,0.2 11.4,0.1 17.1,0.1 z"
     id="path30"
     inkscape:connector-curvature="0"
     style="fill:#626673" /><path
     class="st3"
     d="m 7.4,55.1 c 0,-0.7 0,-1.3 0,-2 0.6,-1.5 1.7,-2.3 3.3,-2.3 1.7,0 3.4,0 5.2,0 0.8,0 1.1,0.3 1.1,1.2 0,1.6 0,3.2 0,4.8 0,0.7 -0.3,0.9 -0.9,0.9 -1.8,0 -3.5,0 -5.3,0 -1.7,-0.2 -2.9,-1 -3.4,-2.6 z"
     id="path34"
     inkscape:connector-curvature="0"
     style="fill:#626673" /></g><path
   style="fill:#fefefe"
   inkscape:connector-curvature="0"
   id="path36"
   d="m 105.1,44.5 c 0,6.1 -4.3,10.5 -10.4,10.5 -5.9,0 -10.1,-4.4 -10.1,-10.6 0,-6.2 4.3,-10.5 10.3,-10.5 6,0 10.2,4.5 10.2,10.6 z"
   class="st0" /><path
   style="fill:#fefefe"
   inkscape:connector-curvature="0"
   id="path38"
   d="m 411.3,50.4 c 0,0.9 -0.1,1.8 0,2.6 0.1,1 -0.4,1.6 -1.2,2.1 -2.4,1.5 -5.2,1.4 -7.2,-0.1 -1.9,-1.5 -2.7,-4.1 -1.9,-6.7 0.8,-2.7 3.5,-4.3 6.4,-3.8 0.5,0.1 1,0.2 1.5,0.4 2.2,0.7 2.5,1.2 2.5,3.4 -0.1,0.7 -0.1,1.4 -0.1,2.1 z"
   class="st0" /><path
   style="fill:#fefefe"
   inkscape:connector-curvature="0"
   id="path40"
   d="m 268.3,50.3 c 0,3.6 -2.2,5.9 -5.5,5.9 -3.3,0 -5.5,-2.3 -5.5,-5.9 0,-3.5 2.2,-5.9 5.5,-5.9 3.4,0.1 5.5,2.3 5.5,5.9 z"
   class="st0" /><path
   style="fill:#fefefe"
   inkscape:connector-curvature="0"
   id="path42"
   d="m 305,50.3 c 0,3.6 -2.2,5.9 -5.5,5.9 -3.3,0 -5.5,-2.3 -5.5,-5.9 0,-3.5 2.2,-5.9 5.6,-5.8 3.3,0 5.5,2.3 5.4,5.8 z"
   class="st0" /><path
   style="fill:#fefefe"
   inkscape:connector-curvature="0"
   id="path44"
   d="m 366.3,46.6 c 0.5,-2.3 2.2,-3.5 4.8,-3.6 2.8,0 4.5,1.2 5.1,3.6 -3.1,0 -6.2,0 -9.3,0 -0.2,0 -0.4,0 -0.6,0 z"
   class="st0" /><path
   style="fill:#fefefe"
   inkscape:connector-curvature="0"
   id="path46"
   d="m 176.1,46.6 c -3.3,0 -6.6,0 -9.9,0 0.1,-1.9 1.7,-3.3 4,-3.5 3,-0.4 5.1,0.8 5.9,3.5 z"
   class="st0" />
</g>
</svg>