<?xml version="1.0" encoding="utf-8"?>
<!-- Generator: Adobe Illustrator 16.0.0, SVG Export Plug-In . SVG Version: 6.00 Build 0)  -->
<!DOCTYPE svg PUBLIC "-//W3C//DTD SVG 1.1//EN" "http://www.w3.org/Graphics/SVG/1.1/DTD/svg11.dtd">
<svg version="1.1" xmlns="http://www.w3.org/2000/svg" xmlns:xlink="http://www.w3.org/1999/xlink" x="0px" y="0px" width="612px"
	 height="612px" viewBox="0 0 612 612" enable-background="new 0 0 612 612" xml:space="preserve">
<g id="Layer_1" display="none">
	<g display="inline">
		<g>
			<path fill="#43A748" d="M301.915,578c71.852,0,141.554-28.887,192.333-79.666c50.78-50.78,79.667-120.482,79.667-192.333
				s-28.887-141.553-79.667-192.333C443.469,62.888,373.767,34,301.915,34c-71.851,0-141.553,28.887-192.333,79.667
				S29.915,234.149,29.915,306s28.887,141.553,79.667,192.333C160.362,549.113,230.064,578,301.915,578L301.915,578z"/>
		</g>
	</g>
</g>
<g id="Layer_2">
	<path fill="#43A648" d="M307.048,210.841c0,0,42.948-0.74,44.431-5.183c0,0,45.169-11.107,58.498,0c0,0,32.583,8.146,47.394,72.569
		c0,0,14.81,73.311-37.025,152.543c0,0-20.733,42.209-63.683,62.202c0,0-17.031,7.404-25.177,3.702c0,0-27.399-22.955-47.393-5.924
		c0,0-19.253,13.329-42.209,1.481c0,0-34.803-13.33-65.164-63.683c0,0-36.285-62.236-31.841-133.678c0,0,0-61.814,43.689-86.251
		c0,0,41.469-35.545,72.57-15.551L307.048,210.841z M330.744,193.069c0,0,10.367-101.449-97.746-99.968
		C232.999,93.102,223.372,194.55,330.744,193.069z M352.219,167.893c38.507-11.107,37.025-15.551,37.025-15.551
		c2.222-5.183-17.772-2.962-17.772-2.962c-41.468,16.291-34.063,43.706-34.063,43.706
		C339.104,176.82,352.219,167.893,352.219,167.893z"/>
	<g>
	</g>
	<g>
	</g>
	<g>
	</g>
	<g>
	</g>
	<g>
	</g>
	<g>
	</g>
</g>
</svg>
