<?xml version="1.0" encoding="utf-8"?>
<!-- Generator: Adobe Illustrator 16.0.0, SVG Export Plug-In . SVG Version: 6.00 Build 0)  -->
<!DOCTYPE svg PUBLIC "-//W3C//DTD SVG 1.1//EN" "http://www.w3.org/Graphics/SVG/1.1/DTD/svg11.dtd">
<svg version="1.1" id="Layer_1" xmlns="http://www.w3.org/2000/svg" xmlns:xlink="http://www.w3.org/1999/xlink" x="0px" y="0px"
	 width="612px" height="612px" viewBox="0 0 612 612" enable-background="new 0 0 612 612" xml:space="preserve">
<g>
	<g>
		<path fill="#569ED6" d="M301.915,578c71.852,0,141.554-28.887,192.333-79.666c50.78-50.78,79.667-120.482,79.667-192.333
			s-28.887-141.553-79.667-192.333C443.469,62.888,373.767,34,301.915,34c-71.851,0-141.553,28.887-192.333,79.667
			S29.915,234.149,29.915,306s28.887,141.553,79.667,192.333C160.362,549.113,230.064,578,301.915,578L301.915,578z"/>
	</g>
</g>
<path fill="#FFFFFF" d="M258.038,182.314c0,0,44.483-25.286,85.221,0c0,0,38.397,2.341,40.739-3.277c0,0,5.618,1.872,36.992-28.563
	c0,0,2.34-6.088,6.555,0c0,0,11.237,22.943-2.81,44.951c0,0-5.619,17.326-37.459,33.715c0,0,3.276,4.214,7.022,15.452
	c0,0,19.199-24.817,30.904-29.5c0,0,14.048-9.833,28.096-8.429h68.833c0,0,18.73,0.469,16.389,16.857
	c0,0-3.746,28.563-38.864,49.166c0,0-15.452,11.707-64.15,16.389c0,0-17.325-0.468-25.755-2.341c0,0,7.024,20.135,4.215,35.587
	c0,0-15.452,60.873-21.539,67.896c0,0-4.683,21.54-13.58,41.206c0,0-2.81,11.706,7.024,26.222c0,0,8.428,31.374-9.365,47.762
	c0,0-12.174,14.048-32.778,15.452c0,0-35.118-4.213-39.333-6.556c0,0-8.896-2.34-21.071,3.278c0,0-39.801,8.429-54.785-10.301
	c0,0-24.349-21.072-4.683-59.469c0,0,4.215-7.492-0.937-21.071c0,0-26.689-75.389-27.158-86.158c0,0-12.643-25.754,0-54.317
	c0,0-34.183,9.833-82.881-8.428c0,0-65.555-37.461-43.079-67.897c0,0,5.619-3.745,11.707-3.745l73.047,0.468
	c0,0,25.754-2.341,54.785,36.992c0,0,3.746-11.706,6.556-14.048c0,0-48.229-21.539-43.547-71.174c0,0,4.683-16.857,10.301-7.96
	c0,0,28.096,32.777,44.017,30.436L258.038,182.314z M258.507,210.409c8.428,23.881,9.364,32.777,9.364,32.777
	c14.984,49.167,2.81,114.722,2.81,114.722c-13.579,61.81-27.158,87.095-27.158,87.095c-14.984,24.35-10.302,29.969-10.302,29.969
	c3.278,25.753,25.754,26.689,25.754,26.689c2.341-9.365-4.683-14.984-4.683-14.984c-5.15-12.642,10.302-14.048,10.302-14.048
	c0,2.343,0,3.278,0,3.278c1.404,1.873,4.214,0.469,4.214,0.469c44.016,12.175,65.087,0,65.087,0c0.938,3.278,5.15,2.341,5.15,2.341
	c0.938-1.873-0.468-4.214-0.468-4.214c4.682-4.214,7.96,2.341,7.96,2.341c4.683,3.278,2.343,9.365,2.343,9.365
	c-7.961,2.342-5.152,15.452-5.152,15.452c12.175-1.405,14.984-5.15,14.984-5.15c17.325-11.706,7.96-36.056,7.96-36.056
	c-11.705-19.197-20.391-52.444-20.391-52.444c-21.328-63.681-18.474-100.205-18.474-100.205
	c0.468-62.746,15.451-92.245,15.451-92.245c8.897-9.365-4.682-17.325-4.682-17.325c-40.738-19.198-73.983,0-73.983,0
	C255.976,201.983,258.507,210.409,258.507,210.409z"/>
<path fill="#569ED6" d="M223.855,300.781c0,0,14.516-3.277,14.984,12.175c0,0-0.937,9.365-10.77,9.834c0,0-9.834-0.292-10.302-11.15
	C217.769,311.64,215.896,306.4,223.855,300.781z M364.332,311.64c-0.938,8.518,10.301,11.15,10.301,11.15
	c12.644-0.469,11.238-11.15,11.238-11.15c0-10.681-11.238-11.148-11.238-11.148C364.799,302.541,364.332,311.64,364.332,311.64z"/>
</svg>
