<?xml version="1.0" encoding="utf-8"?>
<!-- Generator: Adobe Illustrator 16.0.0, SVG Export Plug-In . SVG Version: 6.00 Build 0)  -->
<!DOCTYPE svg PUBLIC "-//W3C//DTD SVG 1.1//EN" "http://www.w3.org/Graphics/SVG/1.1/DTD/svg11.dtd">
<svg version="1.1" xmlns="http://www.w3.org/2000/svg" xmlns:xlink="http://www.w3.org/1999/xlink" x="0px" y="0px" width="310px"
	 height="310px" viewBox="0 0 310 310" enable-background="new 0 0 310 310" xml:space="preserve">
<g id="Layer_1">
	<ellipse fill="#2BA7AA" cx="155.085" cy="155.25" rx="153" ry="150.25"/>
	<ellipse fill="#2BA7AA" cx="155.085" cy="155.25" rx="153" ry="150.25"/>
</g>
<g id="Layer_2">
	<path fill="#FFFFFF" d="M93.082,58.187h123.98v194.667H93.082V58.187z M87.773,53.187v204.334h134.333V53.187H87.773
		 M84.518,254.605l-58.865,2.916V37.584l58.865,15.603V254.605z M81,56.226l-51.5-13.75v213.25l51.5-5.25V56.226z M225.652,53.187
		l58.865-15.603v219.937l-58.865-2.916V53.187z M229.17,250.477l51.5,5.25V42.476l-51.5,13.75V250.477z M93.082,106.476h123.98v2.75
		H93.082V106.476z M93.082,192.977h123.98v-3H93.082V192.977z M157,252.854v-59.877h-4.25v59.877H157z M229.17,116.976l51.5-2.75
		v-3.25l-51.5,3.25V116.976z M229.17,158.354l51.5-2.75v-3.25l-51.5,3.25V158.354z M229.17,199.477l51.5-2.75v-3.25l-51.5,3.25
		V199.477z M80.835,115.979l-51.5-3.25v3.25l51.5,2.75V115.979z M80.835,161.604l-51.5-3.25v3.25l51.5,2.75V161.604z M80.835,208.48
		l-51.5-3.25v3.25l51.5,2.75V208.48z M135.75,198.102c0,0.896-0.728,1.625-1.625,1.625h-23.25c-0.897,0-1.625-0.729-1.625-1.625l0,0
		c0-0.898,0.728-1.625,1.625-1.625h23.25C135.022,196.477,135.75,197.203,135.75,198.102L135.75,198.102z M199.25,198.102
		c0-0.898-0.728-1.625-1.625-1.625h-22.75c-0.897,0-1.625,0.727-1.625,1.625l0,0c0,0.896,0.728,1.625,1.625,1.625h22.75
		C198.522,199.727,199.25,198.998,199.25,198.102L199.25,198.102z"/>
</g>
<g id="Layer_3">
	<radialGradient id="SVGID_1_" cx="155.0859" cy="142.416" r="53.5224" gradientUnits="userSpaceOnUse">
		<stop  offset="0.064" style="stop-color:#E24D53"/>
		<stop  offset="0.2267" style="stop-color:#F58755"/>
		<stop  offset="0.3744" style="stop-color:#E8E150"/>
		<stop  offset="0.5271" style="stop-color:#4FB267"/>
		<stop  offset="0.665" style="stop-color:#2EA4C4"/>
		<stop  offset="0.799" style="stop-color:#5865AE"/>
		<stop  offset="0.9557" style="stop-color:#8961A9"/>
	</radialGradient>
	<ellipse fill="url(#SVGID_1_)" cx="155.086" cy="142.416" rx="54.118" ry="52.92"/>
</g>
<g id="Layer_4">
	<path fill="#2D2D2D" d="M141.686,125.084c0,0,5.895-13.945,19.264-9.057c0,0,8.481,1.726,10.208,13.37
		c0,0,1.438,11.788-11.215,16.102c0,0,1.87,7.619-4.313,8.051c0,0-5.175-0.432-4.024-6.47c0,0-0.72-6.613,4.169-8.914
		c0,0,9.488-1.869,6.038-10.351c0,0-1.726-6.757-9.345-3.307c0,0-3.019,1.869-3.882,4.457c0,0-2.444,1.438-4.887,0.288
		C143.698,129.253,141.686,127.672,141.686,125.084z M151.892,164.619c0.719,2.012,4.505,2.443,4.505,2.443
		c5.224-1.438,3.402-6.182,3.402-6.182c-2.731-4.6-6.614-1.293-6.614-1.293C150.61,160.71,151.892,164.619,151.892,164.619z
		 M174.222,140.332c0,0,6.947-7.249,14.076-1.061c0,0,4.85,3.073,3.168,10.696c0,0-1.895,7.645-10.754,7.328
		c0,0-0.641,5.163-4.573,3.97c0,0-3.105-1.49-0.966-4.96c0,0,1.115-4.268,4.689-4.537c0,0,6.319,1.083,6.186-4.988
		c0,0,0.527-4.596-5.01-4.257c0,0-2.312,0.444-3.458,1.845c0,0-1.854,0.313-3.097-0.977
		C174.483,143.391,173.61,141.936,174.222,140.332z M171.206,167.242c-0.029,1.416,2.215,2.578,2.215,2.578
		c3.577,0.342,3.568-3.027,3.568-3.027c-0.604-3.496-3.793-2.363-3.793-2.363C171.337,164.516,171.206,167.242,171.206,167.242z
		 M118.18,146.734c0,0,0.186-10.039,9.621-10.329c0,0,5.647-1.032,9.583,5.709c0,0,3.795,6.901-2.928,12.68
		c0,0,3.031,4.228-0.667,6.019c0,0-3.292,1.012-4.075-2.988c0,0-2.074-3.892,0.367-6.516c0,0,5.378-3.491,1.161-7.86
		c0,0-2.729-3.735-6.568,0.271c0,0-1.397,1.896-1.29,3.701c0,0-1.149,1.487-2.937,1.384
		C120.448,148.805,118.819,148.327,118.18,146.734z M134.221,168.551c0.938,1.061,3.376,0.393,3.376,0.393
		c2.86-2.176,0.566-4.646,0.566-4.646c-2.814-2.157-4.389,0.838-4.389,0.838C132.466,166.459,134.221,168.551,134.221,168.551z"/>
</g>
</svg>
