<?xml version="1.0" encoding="utf-8"?>
<!-- Generator: Adobe Illustrator 16.0.0, SVG Export Plug-In . SVG Version: 6.00 Build 0)  -->
<!DOCTYPE svg PUBLIC "-//W3C//DTD SVG 1.1//EN" "http://www.w3.org/Graphics/SVG/1.1/DTD/svg11.dtd">
<svg version="1.1" id="Layer_1" xmlns="http://www.w3.org/2000/svg" xmlns:xlink="http://www.w3.org/1999/xlink" x="0px" y="0px"
	 width="612px" height="612px" viewBox="0 0 612 612" enable-background="new 0 0 612 612" xml:space="preserve">
<g>
	<path fill="#9F4C23" d="M305.971,306"/>
	<g>
		<path fill="#9F4C23" d="M305.971,578c71.852,0,141.553-28.887,192.333-79.667S577.971,377.852,577.971,306
			c0-71.851-28.887-141.553-79.667-192.333S377.822,34,305.971,34c-71.851,0-141.553,28.887-192.333,79.667
			S33.971,234.149,33.971,306c0,71.852,28.887,141.553,79.667,192.333S234.12,578,305.971,578L305.971,578z"/>
	</g>
</g>
<path fill="#FFFFFF" d="M143.085,253.163c0,0,43.43-24.189,86.31-24.189c0,0,37.933-3.298,72.017-23.639
	c0,0,35.184-13.194,69.818,6.047l39.581-41.23c0,0-23.089-30.786,8.796-51.677c0,0,49.478-20.89,46.179,31.886
	c0,0,34.835-4.629,34.835,33.419c0,0-0.201,24.854-29.887,30.901c0,0-14.294,4.397-26.389-8.246l-39.031,41.23
	c0,0,14.293,27.487-0.55,69.269c0,0-20.891,36.283-21.99,66.518c0,0-0.55,45.08-23.639,84.662c0,0-9.896,32.434-45.079,48.926
	c0,0-29.687,8.797-57.724,0c0,0-53.325-9.895-95.105-57.723c0,0-63.074-56.623-67.82-129.189
	C93.406,330.127,86.461,268.005,143.085,253.163z M203.557,284.498c-70.917-24.738-81.362,14.843-81.362,14.843
	c-17.232,45.117,22.54,98.955,22.54,98.955c35.733,57.723,97.854,87.41,97.854,87.41c52.775,21.439,72.566,3.297,72.566,3.297
	c21.989-15.941,15.942-51.676,15.942-51.676c-10.048-59.947-59.372-105-59.372-105C248.344,305.743,203.557,284.498,203.557,284.498
	z M209.054,406.541c26.389,20.891,42.331,8.246,42.331,8.246c9.346-15.943-8.246-37.932-8.246-37.932
	c-25.288-31.887-47.278-17.592-47.278-17.592C181.018,380.703,209.054,406.541,209.054,406.541z"/>
</svg>
